G75*
%MOIN*%
%OFA0B0*%
%FSLAX25Y25*%
%IPPOS*%
%LPD*%
%AMOC8*
5,1,8,0,0,1.08239X$1,22.5*
%
%ADD10C,0.00000*%
%ADD11C,0.05200*%
%ADD12C,0.05600*%
%ADD13R,0.05150X0.05150*%
%ADD14C,0.05150*%
%ADD15C,0.06000*%
%ADD16OC8,0.06200*%
%ADD17C,0.06200*%
%ADD18R,0.07000X0.07000*%
%ADD19C,0.07000*%
%ADD20OC8,0.06000*%
%ADD21C,0.01000*%
%ADD22C,0.01600*%
D10*
X0001494Y0001520D02*
X0001516Y0091480D01*
X0170850Y0091480D01*
X0170850Y0001520D01*
X0001494Y0001520D01*
X0007500Y0014000D02*
X0007502Y0014161D01*
X0007508Y0014321D01*
X0007518Y0014482D01*
X0007532Y0014642D01*
X0007550Y0014802D01*
X0007571Y0014961D01*
X0007597Y0015120D01*
X0007627Y0015278D01*
X0007660Y0015435D01*
X0007698Y0015592D01*
X0007739Y0015747D01*
X0007784Y0015901D01*
X0007833Y0016054D01*
X0007886Y0016206D01*
X0007942Y0016357D01*
X0008003Y0016506D01*
X0008066Y0016654D01*
X0008134Y0016800D01*
X0008205Y0016944D01*
X0008279Y0017086D01*
X0008357Y0017227D01*
X0008439Y0017365D01*
X0008524Y0017502D01*
X0008612Y0017636D01*
X0008704Y0017768D01*
X0008799Y0017898D01*
X0008897Y0018026D01*
X0008998Y0018151D01*
X0009102Y0018273D01*
X0009209Y0018393D01*
X0009319Y0018510D01*
X0009432Y0018625D01*
X0009548Y0018736D01*
X0009667Y0018845D01*
X0009788Y0018950D01*
X0009912Y0019053D01*
X0010038Y0019153D01*
X0010166Y0019249D01*
X0010297Y0019342D01*
X0010431Y0019432D01*
X0010566Y0019519D01*
X0010704Y0019602D01*
X0010843Y0019682D01*
X0010985Y0019758D01*
X0011128Y0019831D01*
X0011273Y0019900D01*
X0011420Y0019966D01*
X0011568Y0020028D01*
X0011718Y0020086D01*
X0011869Y0020141D01*
X0012022Y0020192D01*
X0012176Y0020239D01*
X0012331Y0020282D01*
X0012487Y0020321D01*
X0012643Y0020357D01*
X0012801Y0020388D01*
X0012959Y0020416D01*
X0013118Y0020440D01*
X0013278Y0020460D01*
X0013438Y0020476D01*
X0013598Y0020488D01*
X0013759Y0020496D01*
X0013920Y0020500D01*
X0014080Y0020500D01*
X0014241Y0020496D01*
X0014402Y0020488D01*
X0014562Y0020476D01*
X0014722Y0020460D01*
X0014882Y0020440D01*
X0015041Y0020416D01*
X0015199Y0020388D01*
X0015357Y0020357D01*
X0015513Y0020321D01*
X0015669Y0020282D01*
X0015824Y0020239D01*
X0015978Y0020192D01*
X0016131Y0020141D01*
X0016282Y0020086D01*
X0016432Y0020028D01*
X0016580Y0019966D01*
X0016727Y0019900D01*
X0016872Y0019831D01*
X0017015Y0019758D01*
X0017157Y0019682D01*
X0017296Y0019602D01*
X0017434Y0019519D01*
X0017569Y0019432D01*
X0017703Y0019342D01*
X0017834Y0019249D01*
X0017962Y0019153D01*
X0018088Y0019053D01*
X0018212Y0018950D01*
X0018333Y0018845D01*
X0018452Y0018736D01*
X0018568Y0018625D01*
X0018681Y0018510D01*
X0018791Y0018393D01*
X0018898Y0018273D01*
X0019002Y0018151D01*
X0019103Y0018026D01*
X0019201Y0017898D01*
X0019296Y0017768D01*
X0019388Y0017636D01*
X0019476Y0017502D01*
X0019561Y0017365D01*
X0019643Y0017227D01*
X0019721Y0017086D01*
X0019795Y0016944D01*
X0019866Y0016800D01*
X0019934Y0016654D01*
X0019997Y0016506D01*
X0020058Y0016357D01*
X0020114Y0016206D01*
X0020167Y0016054D01*
X0020216Y0015901D01*
X0020261Y0015747D01*
X0020302Y0015592D01*
X0020340Y0015435D01*
X0020373Y0015278D01*
X0020403Y0015120D01*
X0020429Y0014961D01*
X0020450Y0014802D01*
X0020468Y0014642D01*
X0020482Y0014482D01*
X0020492Y0014321D01*
X0020498Y0014161D01*
X0020500Y0014000D01*
X0020498Y0013839D01*
X0020492Y0013679D01*
X0020482Y0013518D01*
X0020468Y0013358D01*
X0020450Y0013198D01*
X0020429Y0013039D01*
X0020403Y0012880D01*
X0020373Y0012722D01*
X0020340Y0012565D01*
X0020302Y0012408D01*
X0020261Y0012253D01*
X0020216Y0012099D01*
X0020167Y0011946D01*
X0020114Y0011794D01*
X0020058Y0011643D01*
X0019997Y0011494D01*
X0019934Y0011346D01*
X0019866Y0011200D01*
X0019795Y0011056D01*
X0019721Y0010914D01*
X0019643Y0010773D01*
X0019561Y0010635D01*
X0019476Y0010498D01*
X0019388Y0010364D01*
X0019296Y0010232D01*
X0019201Y0010102D01*
X0019103Y0009974D01*
X0019002Y0009849D01*
X0018898Y0009727D01*
X0018791Y0009607D01*
X0018681Y0009490D01*
X0018568Y0009375D01*
X0018452Y0009264D01*
X0018333Y0009155D01*
X0018212Y0009050D01*
X0018088Y0008947D01*
X0017962Y0008847D01*
X0017834Y0008751D01*
X0017703Y0008658D01*
X0017569Y0008568D01*
X0017434Y0008481D01*
X0017296Y0008398D01*
X0017157Y0008318D01*
X0017015Y0008242D01*
X0016872Y0008169D01*
X0016727Y0008100D01*
X0016580Y0008034D01*
X0016432Y0007972D01*
X0016282Y0007914D01*
X0016131Y0007859D01*
X0015978Y0007808D01*
X0015824Y0007761D01*
X0015669Y0007718D01*
X0015513Y0007679D01*
X0015357Y0007643D01*
X0015199Y0007612D01*
X0015041Y0007584D01*
X0014882Y0007560D01*
X0014722Y0007540D01*
X0014562Y0007524D01*
X0014402Y0007512D01*
X0014241Y0007504D01*
X0014080Y0007500D01*
X0013920Y0007500D01*
X0013759Y0007504D01*
X0013598Y0007512D01*
X0013438Y0007524D01*
X0013278Y0007540D01*
X0013118Y0007560D01*
X0012959Y0007584D01*
X0012801Y0007612D01*
X0012643Y0007643D01*
X0012487Y0007679D01*
X0012331Y0007718D01*
X0012176Y0007761D01*
X0012022Y0007808D01*
X0011869Y0007859D01*
X0011718Y0007914D01*
X0011568Y0007972D01*
X0011420Y0008034D01*
X0011273Y0008100D01*
X0011128Y0008169D01*
X0010985Y0008242D01*
X0010843Y0008318D01*
X0010704Y0008398D01*
X0010566Y0008481D01*
X0010431Y0008568D01*
X0010297Y0008658D01*
X0010166Y0008751D01*
X0010038Y0008847D01*
X0009912Y0008947D01*
X0009788Y0009050D01*
X0009667Y0009155D01*
X0009548Y0009264D01*
X0009432Y0009375D01*
X0009319Y0009490D01*
X0009209Y0009607D01*
X0009102Y0009727D01*
X0008998Y0009849D01*
X0008897Y0009974D01*
X0008799Y0010102D01*
X0008704Y0010232D01*
X0008612Y0010364D01*
X0008524Y0010498D01*
X0008439Y0010635D01*
X0008357Y0010773D01*
X0008279Y0010914D01*
X0008205Y0011056D01*
X0008134Y0011200D01*
X0008066Y0011346D01*
X0008003Y0011494D01*
X0007942Y0011643D01*
X0007886Y0011794D01*
X0007833Y0011946D01*
X0007784Y0012099D01*
X0007739Y0012253D01*
X0007698Y0012408D01*
X0007660Y0012565D01*
X0007627Y0012722D01*
X0007597Y0012880D01*
X0007571Y0013039D01*
X0007550Y0013198D01*
X0007532Y0013358D01*
X0007518Y0013518D01*
X0007508Y0013679D01*
X0007502Y0013839D01*
X0007500Y0014000D01*
X0007500Y0079000D02*
X0007502Y0079161D01*
X0007508Y0079321D01*
X0007518Y0079482D01*
X0007532Y0079642D01*
X0007550Y0079802D01*
X0007571Y0079961D01*
X0007597Y0080120D01*
X0007627Y0080278D01*
X0007660Y0080435D01*
X0007698Y0080592D01*
X0007739Y0080747D01*
X0007784Y0080901D01*
X0007833Y0081054D01*
X0007886Y0081206D01*
X0007942Y0081357D01*
X0008003Y0081506D01*
X0008066Y0081654D01*
X0008134Y0081800D01*
X0008205Y0081944D01*
X0008279Y0082086D01*
X0008357Y0082227D01*
X0008439Y0082365D01*
X0008524Y0082502D01*
X0008612Y0082636D01*
X0008704Y0082768D01*
X0008799Y0082898D01*
X0008897Y0083026D01*
X0008998Y0083151D01*
X0009102Y0083273D01*
X0009209Y0083393D01*
X0009319Y0083510D01*
X0009432Y0083625D01*
X0009548Y0083736D01*
X0009667Y0083845D01*
X0009788Y0083950D01*
X0009912Y0084053D01*
X0010038Y0084153D01*
X0010166Y0084249D01*
X0010297Y0084342D01*
X0010431Y0084432D01*
X0010566Y0084519D01*
X0010704Y0084602D01*
X0010843Y0084682D01*
X0010985Y0084758D01*
X0011128Y0084831D01*
X0011273Y0084900D01*
X0011420Y0084966D01*
X0011568Y0085028D01*
X0011718Y0085086D01*
X0011869Y0085141D01*
X0012022Y0085192D01*
X0012176Y0085239D01*
X0012331Y0085282D01*
X0012487Y0085321D01*
X0012643Y0085357D01*
X0012801Y0085388D01*
X0012959Y0085416D01*
X0013118Y0085440D01*
X0013278Y0085460D01*
X0013438Y0085476D01*
X0013598Y0085488D01*
X0013759Y0085496D01*
X0013920Y0085500D01*
X0014080Y0085500D01*
X0014241Y0085496D01*
X0014402Y0085488D01*
X0014562Y0085476D01*
X0014722Y0085460D01*
X0014882Y0085440D01*
X0015041Y0085416D01*
X0015199Y0085388D01*
X0015357Y0085357D01*
X0015513Y0085321D01*
X0015669Y0085282D01*
X0015824Y0085239D01*
X0015978Y0085192D01*
X0016131Y0085141D01*
X0016282Y0085086D01*
X0016432Y0085028D01*
X0016580Y0084966D01*
X0016727Y0084900D01*
X0016872Y0084831D01*
X0017015Y0084758D01*
X0017157Y0084682D01*
X0017296Y0084602D01*
X0017434Y0084519D01*
X0017569Y0084432D01*
X0017703Y0084342D01*
X0017834Y0084249D01*
X0017962Y0084153D01*
X0018088Y0084053D01*
X0018212Y0083950D01*
X0018333Y0083845D01*
X0018452Y0083736D01*
X0018568Y0083625D01*
X0018681Y0083510D01*
X0018791Y0083393D01*
X0018898Y0083273D01*
X0019002Y0083151D01*
X0019103Y0083026D01*
X0019201Y0082898D01*
X0019296Y0082768D01*
X0019388Y0082636D01*
X0019476Y0082502D01*
X0019561Y0082365D01*
X0019643Y0082227D01*
X0019721Y0082086D01*
X0019795Y0081944D01*
X0019866Y0081800D01*
X0019934Y0081654D01*
X0019997Y0081506D01*
X0020058Y0081357D01*
X0020114Y0081206D01*
X0020167Y0081054D01*
X0020216Y0080901D01*
X0020261Y0080747D01*
X0020302Y0080592D01*
X0020340Y0080435D01*
X0020373Y0080278D01*
X0020403Y0080120D01*
X0020429Y0079961D01*
X0020450Y0079802D01*
X0020468Y0079642D01*
X0020482Y0079482D01*
X0020492Y0079321D01*
X0020498Y0079161D01*
X0020500Y0079000D01*
X0020498Y0078839D01*
X0020492Y0078679D01*
X0020482Y0078518D01*
X0020468Y0078358D01*
X0020450Y0078198D01*
X0020429Y0078039D01*
X0020403Y0077880D01*
X0020373Y0077722D01*
X0020340Y0077565D01*
X0020302Y0077408D01*
X0020261Y0077253D01*
X0020216Y0077099D01*
X0020167Y0076946D01*
X0020114Y0076794D01*
X0020058Y0076643D01*
X0019997Y0076494D01*
X0019934Y0076346D01*
X0019866Y0076200D01*
X0019795Y0076056D01*
X0019721Y0075914D01*
X0019643Y0075773D01*
X0019561Y0075635D01*
X0019476Y0075498D01*
X0019388Y0075364D01*
X0019296Y0075232D01*
X0019201Y0075102D01*
X0019103Y0074974D01*
X0019002Y0074849D01*
X0018898Y0074727D01*
X0018791Y0074607D01*
X0018681Y0074490D01*
X0018568Y0074375D01*
X0018452Y0074264D01*
X0018333Y0074155D01*
X0018212Y0074050D01*
X0018088Y0073947D01*
X0017962Y0073847D01*
X0017834Y0073751D01*
X0017703Y0073658D01*
X0017569Y0073568D01*
X0017434Y0073481D01*
X0017296Y0073398D01*
X0017157Y0073318D01*
X0017015Y0073242D01*
X0016872Y0073169D01*
X0016727Y0073100D01*
X0016580Y0073034D01*
X0016432Y0072972D01*
X0016282Y0072914D01*
X0016131Y0072859D01*
X0015978Y0072808D01*
X0015824Y0072761D01*
X0015669Y0072718D01*
X0015513Y0072679D01*
X0015357Y0072643D01*
X0015199Y0072612D01*
X0015041Y0072584D01*
X0014882Y0072560D01*
X0014722Y0072540D01*
X0014562Y0072524D01*
X0014402Y0072512D01*
X0014241Y0072504D01*
X0014080Y0072500D01*
X0013920Y0072500D01*
X0013759Y0072504D01*
X0013598Y0072512D01*
X0013438Y0072524D01*
X0013278Y0072540D01*
X0013118Y0072560D01*
X0012959Y0072584D01*
X0012801Y0072612D01*
X0012643Y0072643D01*
X0012487Y0072679D01*
X0012331Y0072718D01*
X0012176Y0072761D01*
X0012022Y0072808D01*
X0011869Y0072859D01*
X0011718Y0072914D01*
X0011568Y0072972D01*
X0011420Y0073034D01*
X0011273Y0073100D01*
X0011128Y0073169D01*
X0010985Y0073242D01*
X0010843Y0073318D01*
X0010704Y0073398D01*
X0010566Y0073481D01*
X0010431Y0073568D01*
X0010297Y0073658D01*
X0010166Y0073751D01*
X0010038Y0073847D01*
X0009912Y0073947D01*
X0009788Y0074050D01*
X0009667Y0074155D01*
X0009548Y0074264D01*
X0009432Y0074375D01*
X0009319Y0074490D01*
X0009209Y0074607D01*
X0009102Y0074727D01*
X0008998Y0074849D01*
X0008897Y0074974D01*
X0008799Y0075102D01*
X0008704Y0075232D01*
X0008612Y0075364D01*
X0008524Y0075498D01*
X0008439Y0075635D01*
X0008357Y0075773D01*
X0008279Y0075914D01*
X0008205Y0076056D01*
X0008134Y0076200D01*
X0008066Y0076346D01*
X0008003Y0076494D01*
X0007942Y0076643D01*
X0007886Y0076794D01*
X0007833Y0076946D01*
X0007784Y0077099D01*
X0007739Y0077253D01*
X0007698Y0077408D01*
X0007660Y0077565D01*
X0007627Y0077722D01*
X0007597Y0077880D01*
X0007571Y0078039D01*
X0007550Y0078198D01*
X0007532Y0078358D01*
X0007518Y0078518D01*
X0007508Y0078679D01*
X0007502Y0078839D01*
X0007500Y0079000D01*
X0152500Y0079000D02*
X0152502Y0079161D01*
X0152508Y0079321D01*
X0152518Y0079482D01*
X0152532Y0079642D01*
X0152550Y0079802D01*
X0152571Y0079961D01*
X0152597Y0080120D01*
X0152627Y0080278D01*
X0152660Y0080435D01*
X0152698Y0080592D01*
X0152739Y0080747D01*
X0152784Y0080901D01*
X0152833Y0081054D01*
X0152886Y0081206D01*
X0152942Y0081357D01*
X0153003Y0081506D01*
X0153066Y0081654D01*
X0153134Y0081800D01*
X0153205Y0081944D01*
X0153279Y0082086D01*
X0153357Y0082227D01*
X0153439Y0082365D01*
X0153524Y0082502D01*
X0153612Y0082636D01*
X0153704Y0082768D01*
X0153799Y0082898D01*
X0153897Y0083026D01*
X0153998Y0083151D01*
X0154102Y0083273D01*
X0154209Y0083393D01*
X0154319Y0083510D01*
X0154432Y0083625D01*
X0154548Y0083736D01*
X0154667Y0083845D01*
X0154788Y0083950D01*
X0154912Y0084053D01*
X0155038Y0084153D01*
X0155166Y0084249D01*
X0155297Y0084342D01*
X0155431Y0084432D01*
X0155566Y0084519D01*
X0155704Y0084602D01*
X0155843Y0084682D01*
X0155985Y0084758D01*
X0156128Y0084831D01*
X0156273Y0084900D01*
X0156420Y0084966D01*
X0156568Y0085028D01*
X0156718Y0085086D01*
X0156869Y0085141D01*
X0157022Y0085192D01*
X0157176Y0085239D01*
X0157331Y0085282D01*
X0157487Y0085321D01*
X0157643Y0085357D01*
X0157801Y0085388D01*
X0157959Y0085416D01*
X0158118Y0085440D01*
X0158278Y0085460D01*
X0158438Y0085476D01*
X0158598Y0085488D01*
X0158759Y0085496D01*
X0158920Y0085500D01*
X0159080Y0085500D01*
X0159241Y0085496D01*
X0159402Y0085488D01*
X0159562Y0085476D01*
X0159722Y0085460D01*
X0159882Y0085440D01*
X0160041Y0085416D01*
X0160199Y0085388D01*
X0160357Y0085357D01*
X0160513Y0085321D01*
X0160669Y0085282D01*
X0160824Y0085239D01*
X0160978Y0085192D01*
X0161131Y0085141D01*
X0161282Y0085086D01*
X0161432Y0085028D01*
X0161580Y0084966D01*
X0161727Y0084900D01*
X0161872Y0084831D01*
X0162015Y0084758D01*
X0162157Y0084682D01*
X0162296Y0084602D01*
X0162434Y0084519D01*
X0162569Y0084432D01*
X0162703Y0084342D01*
X0162834Y0084249D01*
X0162962Y0084153D01*
X0163088Y0084053D01*
X0163212Y0083950D01*
X0163333Y0083845D01*
X0163452Y0083736D01*
X0163568Y0083625D01*
X0163681Y0083510D01*
X0163791Y0083393D01*
X0163898Y0083273D01*
X0164002Y0083151D01*
X0164103Y0083026D01*
X0164201Y0082898D01*
X0164296Y0082768D01*
X0164388Y0082636D01*
X0164476Y0082502D01*
X0164561Y0082365D01*
X0164643Y0082227D01*
X0164721Y0082086D01*
X0164795Y0081944D01*
X0164866Y0081800D01*
X0164934Y0081654D01*
X0164997Y0081506D01*
X0165058Y0081357D01*
X0165114Y0081206D01*
X0165167Y0081054D01*
X0165216Y0080901D01*
X0165261Y0080747D01*
X0165302Y0080592D01*
X0165340Y0080435D01*
X0165373Y0080278D01*
X0165403Y0080120D01*
X0165429Y0079961D01*
X0165450Y0079802D01*
X0165468Y0079642D01*
X0165482Y0079482D01*
X0165492Y0079321D01*
X0165498Y0079161D01*
X0165500Y0079000D01*
X0165498Y0078839D01*
X0165492Y0078679D01*
X0165482Y0078518D01*
X0165468Y0078358D01*
X0165450Y0078198D01*
X0165429Y0078039D01*
X0165403Y0077880D01*
X0165373Y0077722D01*
X0165340Y0077565D01*
X0165302Y0077408D01*
X0165261Y0077253D01*
X0165216Y0077099D01*
X0165167Y0076946D01*
X0165114Y0076794D01*
X0165058Y0076643D01*
X0164997Y0076494D01*
X0164934Y0076346D01*
X0164866Y0076200D01*
X0164795Y0076056D01*
X0164721Y0075914D01*
X0164643Y0075773D01*
X0164561Y0075635D01*
X0164476Y0075498D01*
X0164388Y0075364D01*
X0164296Y0075232D01*
X0164201Y0075102D01*
X0164103Y0074974D01*
X0164002Y0074849D01*
X0163898Y0074727D01*
X0163791Y0074607D01*
X0163681Y0074490D01*
X0163568Y0074375D01*
X0163452Y0074264D01*
X0163333Y0074155D01*
X0163212Y0074050D01*
X0163088Y0073947D01*
X0162962Y0073847D01*
X0162834Y0073751D01*
X0162703Y0073658D01*
X0162569Y0073568D01*
X0162434Y0073481D01*
X0162296Y0073398D01*
X0162157Y0073318D01*
X0162015Y0073242D01*
X0161872Y0073169D01*
X0161727Y0073100D01*
X0161580Y0073034D01*
X0161432Y0072972D01*
X0161282Y0072914D01*
X0161131Y0072859D01*
X0160978Y0072808D01*
X0160824Y0072761D01*
X0160669Y0072718D01*
X0160513Y0072679D01*
X0160357Y0072643D01*
X0160199Y0072612D01*
X0160041Y0072584D01*
X0159882Y0072560D01*
X0159722Y0072540D01*
X0159562Y0072524D01*
X0159402Y0072512D01*
X0159241Y0072504D01*
X0159080Y0072500D01*
X0158920Y0072500D01*
X0158759Y0072504D01*
X0158598Y0072512D01*
X0158438Y0072524D01*
X0158278Y0072540D01*
X0158118Y0072560D01*
X0157959Y0072584D01*
X0157801Y0072612D01*
X0157643Y0072643D01*
X0157487Y0072679D01*
X0157331Y0072718D01*
X0157176Y0072761D01*
X0157022Y0072808D01*
X0156869Y0072859D01*
X0156718Y0072914D01*
X0156568Y0072972D01*
X0156420Y0073034D01*
X0156273Y0073100D01*
X0156128Y0073169D01*
X0155985Y0073242D01*
X0155843Y0073318D01*
X0155704Y0073398D01*
X0155566Y0073481D01*
X0155431Y0073568D01*
X0155297Y0073658D01*
X0155166Y0073751D01*
X0155038Y0073847D01*
X0154912Y0073947D01*
X0154788Y0074050D01*
X0154667Y0074155D01*
X0154548Y0074264D01*
X0154432Y0074375D01*
X0154319Y0074490D01*
X0154209Y0074607D01*
X0154102Y0074727D01*
X0153998Y0074849D01*
X0153897Y0074974D01*
X0153799Y0075102D01*
X0153704Y0075232D01*
X0153612Y0075364D01*
X0153524Y0075498D01*
X0153439Y0075635D01*
X0153357Y0075773D01*
X0153279Y0075914D01*
X0153205Y0076056D01*
X0153134Y0076200D01*
X0153066Y0076346D01*
X0153003Y0076494D01*
X0152942Y0076643D01*
X0152886Y0076794D01*
X0152833Y0076946D01*
X0152784Y0077099D01*
X0152739Y0077253D01*
X0152698Y0077408D01*
X0152660Y0077565D01*
X0152627Y0077722D01*
X0152597Y0077880D01*
X0152571Y0078039D01*
X0152550Y0078198D01*
X0152532Y0078358D01*
X0152518Y0078518D01*
X0152508Y0078679D01*
X0152502Y0078839D01*
X0152500Y0079000D01*
X0152500Y0014000D02*
X0152502Y0014161D01*
X0152508Y0014321D01*
X0152518Y0014482D01*
X0152532Y0014642D01*
X0152550Y0014802D01*
X0152571Y0014961D01*
X0152597Y0015120D01*
X0152627Y0015278D01*
X0152660Y0015435D01*
X0152698Y0015592D01*
X0152739Y0015747D01*
X0152784Y0015901D01*
X0152833Y0016054D01*
X0152886Y0016206D01*
X0152942Y0016357D01*
X0153003Y0016506D01*
X0153066Y0016654D01*
X0153134Y0016800D01*
X0153205Y0016944D01*
X0153279Y0017086D01*
X0153357Y0017227D01*
X0153439Y0017365D01*
X0153524Y0017502D01*
X0153612Y0017636D01*
X0153704Y0017768D01*
X0153799Y0017898D01*
X0153897Y0018026D01*
X0153998Y0018151D01*
X0154102Y0018273D01*
X0154209Y0018393D01*
X0154319Y0018510D01*
X0154432Y0018625D01*
X0154548Y0018736D01*
X0154667Y0018845D01*
X0154788Y0018950D01*
X0154912Y0019053D01*
X0155038Y0019153D01*
X0155166Y0019249D01*
X0155297Y0019342D01*
X0155431Y0019432D01*
X0155566Y0019519D01*
X0155704Y0019602D01*
X0155843Y0019682D01*
X0155985Y0019758D01*
X0156128Y0019831D01*
X0156273Y0019900D01*
X0156420Y0019966D01*
X0156568Y0020028D01*
X0156718Y0020086D01*
X0156869Y0020141D01*
X0157022Y0020192D01*
X0157176Y0020239D01*
X0157331Y0020282D01*
X0157487Y0020321D01*
X0157643Y0020357D01*
X0157801Y0020388D01*
X0157959Y0020416D01*
X0158118Y0020440D01*
X0158278Y0020460D01*
X0158438Y0020476D01*
X0158598Y0020488D01*
X0158759Y0020496D01*
X0158920Y0020500D01*
X0159080Y0020500D01*
X0159241Y0020496D01*
X0159402Y0020488D01*
X0159562Y0020476D01*
X0159722Y0020460D01*
X0159882Y0020440D01*
X0160041Y0020416D01*
X0160199Y0020388D01*
X0160357Y0020357D01*
X0160513Y0020321D01*
X0160669Y0020282D01*
X0160824Y0020239D01*
X0160978Y0020192D01*
X0161131Y0020141D01*
X0161282Y0020086D01*
X0161432Y0020028D01*
X0161580Y0019966D01*
X0161727Y0019900D01*
X0161872Y0019831D01*
X0162015Y0019758D01*
X0162157Y0019682D01*
X0162296Y0019602D01*
X0162434Y0019519D01*
X0162569Y0019432D01*
X0162703Y0019342D01*
X0162834Y0019249D01*
X0162962Y0019153D01*
X0163088Y0019053D01*
X0163212Y0018950D01*
X0163333Y0018845D01*
X0163452Y0018736D01*
X0163568Y0018625D01*
X0163681Y0018510D01*
X0163791Y0018393D01*
X0163898Y0018273D01*
X0164002Y0018151D01*
X0164103Y0018026D01*
X0164201Y0017898D01*
X0164296Y0017768D01*
X0164388Y0017636D01*
X0164476Y0017502D01*
X0164561Y0017365D01*
X0164643Y0017227D01*
X0164721Y0017086D01*
X0164795Y0016944D01*
X0164866Y0016800D01*
X0164934Y0016654D01*
X0164997Y0016506D01*
X0165058Y0016357D01*
X0165114Y0016206D01*
X0165167Y0016054D01*
X0165216Y0015901D01*
X0165261Y0015747D01*
X0165302Y0015592D01*
X0165340Y0015435D01*
X0165373Y0015278D01*
X0165403Y0015120D01*
X0165429Y0014961D01*
X0165450Y0014802D01*
X0165468Y0014642D01*
X0165482Y0014482D01*
X0165492Y0014321D01*
X0165498Y0014161D01*
X0165500Y0014000D01*
X0165498Y0013839D01*
X0165492Y0013679D01*
X0165482Y0013518D01*
X0165468Y0013358D01*
X0165450Y0013198D01*
X0165429Y0013039D01*
X0165403Y0012880D01*
X0165373Y0012722D01*
X0165340Y0012565D01*
X0165302Y0012408D01*
X0165261Y0012253D01*
X0165216Y0012099D01*
X0165167Y0011946D01*
X0165114Y0011794D01*
X0165058Y0011643D01*
X0164997Y0011494D01*
X0164934Y0011346D01*
X0164866Y0011200D01*
X0164795Y0011056D01*
X0164721Y0010914D01*
X0164643Y0010773D01*
X0164561Y0010635D01*
X0164476Y0010498D01*
X0164388Y0010364D01*
X0164296Y0010232D01*
X0164201Y0010102D01*
X0164103Y0009974D01*
X0164002Y0009849D01*
X0163898Y0009727D01*
X0163791Y0009607D01*
X0163681Y0009490D01*
X0163568Y0009375D01*
X0163452Y0009264D01*
X0163333Y0009155D01*
X0163212Y0009050D01*
X0163088Y0008947D01*
X0162962Y0008847D01*
X0162834Y0008751D01*
X0162703Y0008658D01*
X0162569Y0008568D01*
X0162434Y0008481D01*
X0162296Y0008398D01*
X0162157Y0008318D01*
X0162015Y0008242D01*
X0161872Y0008169D01*
X0161727Y0008100D01*
X0161580Y0008034D01*
X0161432Y0007972D01*
X0161282Y0007914D01*
X0161131Y0007859D01*
X0160978Y0007808D01*
X0160824Y0007761D01*
X0160669Y0007718D01*
X0160513Y0007679D01*
X0160357Y0007643D01*
X0160199Y0007612D01*
X0160041Y0007584D01*
X0159882Y0007560D01*
X0159722Y0007540D01*
X0159562Y0007524D01*
X0159402Y0007512D01*
X0159241Y0007504D01*
X0159080Y0007500D01*
X0158920Y0007500D01*
X0158759Y0007504D01*
X0158598Y0007512D01*
X0158438Y0007524D01*
X0158278Y0007540D01*
X0158118Y0007560D01*
X0157959Y0007584D01*
X0157801Y0007612D01*
X0157643Y0007643D01*
X0157487Y0007679D01*
X0157331Y0007718D01*
X0157176Y0007761D01*
X0157022Y0007808D01*
X0156869Y0007859D01*
X0156718Y0007914D01*
X0156568Y0007972D01*
X0156420Y0008034D01*
X0156273Y0008100D01*
X0156128Y0008169D01*
X0155985Y0008242D01*
X0155843Y0008318D01*
X0155704Y0008398D01*
X0155566Y0008481D01*
X0155431Y0008568D01*
X0155297Y0008658D01*
X0155166Y0008751D01*
X0155038Y0008847D01*
X0154912Y0008947D01*
X0154788Y0009050D01*
X0154667Y0009155D01*
X0154548Y0009264D01*
X0154432Y0009375D01*
X0154319Y0009490D01*
X0154209Y0009607D01*
X0154102Y0009727D01*
X0153998Y0009849D01*
X0153897Y0009974D01*
X0153799Y0010102D01*
X0153704Y0010232D01*
X0153612Y0010364D01*
X0153524Y0010498D01*
X0153439Y0010635D01*
X0153357Y0010773D01*
X0153279Y0010914D01*
X0153205Y0011056D01*
X0153134Y0011200D01*
X0153066Y0011346D01*
X0153003Y0011494D01*
X0152942Y0011643D01*
X0152886Y0011794D01*
X0152833Y0011946D01*
X0152784Y0012099D01*
X0152739Y0012253D01*
X0152698Y0012408D01*
X0152660Y0012565D01*
X0152627Y0012722D01*
X0152597Y0012880D01*
X0152571Y0013039D01*
X0152550Y0013198D01*
X0152532Y0013358D01*
X0152518Y0013518D01*
X0152508Y0013679D01*
X0152502Y0013839D01*
X0152500Y0014000D01*
D11*
X0084100Y0021500D02*
X0078900Y0021500D01*
X0078900Y0031500D02*
X0084100Y0031500D01*
X0084100Y0041500D02*
X0078900Y0041500D01*
X0078900Y0051500D02*
X0084100Y0051500D01*
X0054100Y0051500D02*
X0048900Y0051500D01*
X0048900Y0041500D02*
X0054100Y0041500D01*
X0054100Y0031500D02*
X0048900Y0031500D01*
X0048900Y0021500D02*
X0054100Y0021500D01*
D12*
X0024300Y0046500D02*
X0018700Y0046500D01*
X0018700Y0056500D02*
X0024300Y0056500D01*
X0153700Y0056500D02*
X0159300Y0056500D01*
X0159300Y0046500D02*
X0153700Y0046500D01*
D13*
X0111500Y0064000D03*
D14*
X0128925Y0064000D02*
X0134075Y0064000D01*
X0134075Y0084000D02*
X0128925Y0084000D01*
X0114075Y0084000D02*
X0108925Y0084000D01*
D15*
X0121500Y0079000D03*
X0121500Y0069000D03*
D16*
X0036500Y0074000D03*
D17*
X0026500Y0074000D03*
D18*
X0081500Y0081500D03*
D19*
X0071500Y0081500D03*
X0061500Y0081500D03*
X0061500Y0071500D03*
X0071500Y0071500D03*
X0081500Y0071500D03*
D20*
X0091500Y0051500D03*
X0091500Y0041500D03*
X0091500Y0031500D03*
X0091500Y0021500D03*
X0071500Y0009000D03*
X0061500Y0009000D03*
X0036500Y0011500D03*
X0036500Y0051500D03*
X0131500Y0051500D03*
X0131500Y0041500D03*
X0131500Y0031500D03*
X0131500Y0021500D03*
D21*
X0135800Y0021470D02*
X0153742Y0021470D01*
X0153902Y0021630D02*
X0151370Y0019098D01*
X0150000Y0015790D01*
X0150000Y0012210D01*
X0151370Y0008902D01*
X0153902Y0006370D01*
X0157210Y0005000D01*
X0160790Y0005000D01*
X0164098Y0006370D01*
X0166630Y0008902D01*
X0168000Y0012210D01*
X0168000Y0015790D01*
X0166630Y0019098D01*
X0164098Y0021630D01*
X0160790Y0023000D01*
X0157210Y0023000D01*
X0153902Y0021630D01*
X0152744Y0020472D02*
X0135800Y0020472D01*
X0135800Y0019719D02*
X0133281Y0017200D01*
X0129719Y0017200D01*
X0127200Y0019719D01*
X0127200Y0023281D01*
X0129719Y0025800D01*
X0133281Y0025800D01*
X0135800Y0023281D01*
X0135800Y0019719D01*
X0135554Y0019473D02*
X0151745Y0019473D01*
X0151112Y0018475D02*
X0134556Y0018475D01*
X0133557Y0017476D02*
X0150698Y0017476D01*
X0150285Y0016478D02*
X0073600Y0016478D01*
X0073600Y0017476D02*
X0089443Y0017476D01*
X0089719Y0017200D02*
X0093281Y0017200D01*
X0095800Y0019719D01*
X0095800Y0023281D01*
X0093281Y0025800D01*
X0089719Y0025800D01*
X0087471Y0023552D01*
X0087406Y0023709D01*
X0086309Y0024806D01*
X0084876Y0025400D01*
X0078124Y0025400D01*
X0076691Y0024806D01*
X0075594Y0023709D01*
X0075000Y0022276D01*
X0075000Y0020724D01*
X0075594Y0019291D01*
X0076691Y0018194D01*
X0078124Y0017600D01*
X0084876Y0017600D01*
X0086309Y0018194D01*
X0087406Y0019291D01*
X0087471Y0019448D01*
X0089719Y0017200D01*
X0088444Y0018475D02*
X0086590Y0018475D01*
X0093557Y0017476D02*
X0129443Y0017476D01*
X0128444Y0018475D02*
X0094556Y0018475D01*
X0095554Y0019473D02*
X0127446Y0019473D01*
X0127200Y0020472D02*
X0095800Y0020472D01*
X0095800Y0021470D02*
X0127200Y0021470D01*
X0127200Y0022469D02*
X0095800Y0022469D01*
X0095614Y0023467D02*
X0127386Y0023467D01*
X0128385Y0024466D02*
X0094615Y0024466D01*
X0093617Y0025464D02*
X0129383Y0025464D01*
X0129719Y0027200D02*
X0133281Y0027200D01*
X0135800Y0029719D01*
X0135800Y0033281D01*
X0133281Y0035800D01*
X0129719Y0035800D01*
X0127200Y0033281D01*
X0127200Y0029719D01*
X0129719Y0027200D01*
X0129458Y0027461D02*
X0093542Y0027461D01*
X0093281Y0027200D02*
X0095800Y0029719D01*
X0095800Y0033281D01*
X0093281Y0035800D01*
X0089719Y0035800D01*
X0087471Y0033552D01*
X0087406Y0033709D01*
X0086309Y0034806D01*
X0084876Y0035400D01*
X0078124Y0035400D01*
X0076691Y0034806D01*
X0075594Y0033709D01*
X0075000Y0032276D01*
X0075000Y0030724D01*
X0075594Y0029291D01*
X0076691Y0028194D01*
X0078124Y0027600D01*
X0084876Y0027600D01*
X0086309Y0028194D01*
X0087406Y0029291D01*
X0087471Y0029448D01*
X0089719Y0027200D01*
X0093281Y0027200D01*
X0094541Y0028460D02*
X0128459Y0028460D01*
X0127461Y0029458D02*
X0095539Y0029458D01*
X0095800Y0030457D02*
X0127200Y0030457D01*
X0127200Y0031455D02*
X0095800Y0031455D01*
X0095800Y0032454D02*
X0127200Y0032454D01*
X0127371Y0033452D02*
X0095629Y0033452D01*
X0094630Y0034451D02*
X0128370Y0034451D01*
X0129368Y0035449D02*
X0093632Y0035449D01*
X0093281Y0037200D02*
X0095800Y0039719D01*
X0095800Y0043281D01*
X0093281Y0045800D01*
X0089719Y0045800D01*
X0087471Y0043552D01*
X0087406Y0043709D01*
X0086309Y0044806D01*
X0084876Y0045400D01*
X0078124Y0045400D01*
X0076691Y0044806D01*
X0075594Y0043709D01*
X0075000Y0042276D01*
X0075000Y0040724D01*
X0075594Y0039291D01*
X0076691Y0038194D01*
X0078124Y0037600D01*
X0084876Y0037600D01*
X0086309Y0038194D01*
X0087406Y0039291D01*
X0087471Y0039448D01*
X0089719Y0037200D01*
X0093281Y0037200D01*
X0093528Y0037446D02*
X0129472Y0037446D01*
X0129719Y0037200D02*
X0133281Y0037200D01*
X0135800Y0039719D01*
X0135800Y0043281D01*
X0133281Y0045800D01*
X0129719Y0045800D01*
X0127200Y0043281D01*
X0127200Y0039719D01*
X0129719Y0037200D01*
X0128474Y0038445D02*
X0094526Y0038445D01*
X0095525Y0039443D02*
X0127475Y0039443D01*
X0127200Y0040442D02*
X0095800Y0040442D01*
X0095800Y0041440D02*
X0127200Y0041440D01*
X0127200Y0042439D02*
X0095800Y0042439D01*
X0095644Y0043437D02*
X0127356Y0043437D01*
X0128355Y0044436D02*
X0094645Y0044436D01*
X0093647Y0045434D02*
X0129353Y0045434D01*
X0129636Y0047000D02*
X0131200Y0047000D01*
X0131200Y0051200D01*
X0131800Y0051200D01*
X0131800Y0051800D01*
X0136000Y0051800D01*
X0136000Y0053364D01*
X0133364Y0056000D01*
X0131800Y0056000D01*
X0131800Y0051800D01*
X0131200Y0051800D01*
X0131200Y0056000D01*
X0129636Y0056000D01*
X0127000Y0053364D01*
X0127000Y0051800D01*
X0131200Y0051800D01*
X0131200Y0051200D01*
X0127000Y0051200D01*
X0127000Y0049636D01*
X0129636Y0047000D01*
X0129205Y0047432D02*
X0093513Y0047432D01*
X0093281Y0047200D02*
X0095800Y0049719D01*
X0095800Y0053281D01*
X0093300Y0055781D01*
X0093300Y0060754D01*
X0099746Y0067200D01*
X0107712Y0067200D01*
X0107625Y0067113D01*
X0107625Y0060887D01*
X0108387Y0060125D01*
X0114613Y0060125D01*
X0115375Y0060887D01*
X0115375Y0067113D01*
X0115288Y0067200D01*
X0117591Y0067200D01*
X0117855Y0066564D01*
X0119064Y0065355D01*
X0120645Y0064700D01*
X0122355Y0064700D01*
X0123936Y0065355D01*
X0125145Y0066564D01*
X0125800Y0068145D01*
X0125800Y0069855D01*
X0125145Y0071436D01*
X0123936Y0072645D01*
X0122355Y0073300D01*
X0120645Y0073300D01*
X0119064Y0072645D01*
X0117855Y0071436D01*
X0117591Y0070800D01*
X0098254Y0070800D01*
X0090754Y0063300D01*
X0089700Y0062246D01*
X0089700Y0055846D01*
X0084746Y0060800D01*
X0068254Y0060800D01*
X0067200Y0059746D01*
X0065754Y0058300D01*
X0064700Y0057246D01*
X0064700Y0037246D01*
X0060754Y0033300D01*
X0057576Y0033300D01*
X0057406Y0033709D01*
X0056309Y0034806D01*
X0054876Y0035400D01*
X0048124Y0035400D01*
X0046691Y0034806D01*
X0045594Y0033709D01*
X0045000Y0032276D01*
X0045000Y0030724D01*
X0045594Y0029291D01*
X0046691Y0028194D01*
X0048124Y0027600D01*
X0054876Y0027600D01*
X0056309Y0028194D01*
X0057406Y0029291D01*
X0057576Y0029700D01*
X0062246Y0029700D01*
X0063300Y0030754D01*
X0068300Y0035754D01*
X0068300Y0055754D01*
X0069746Y0057200D01*
X0083254Y0057200D01*
X0085181Y0055274D01*
X0084876Y0055400D01*
X0078124Y0055400D01*
X0076691Y0054806D01*
X0075594Y0053709D01*
X0075491Y0053461D01*
X0070630Y0048600D01*
X0069400Y0047370D01*
X0069400Y0012981D01*
X0067200Y0010781D01*
X0067200Y0007219D01*
X0069719Y0004700D01*
X0073281Y0004700D01*
X0075800Y0007219D01*
X0075800Y0010781D01*
X0073600Y0012981D01*
X0073600Y0045630D01*
X0076427Y0048457D01*
X0076691Y0048194D01*
X0078124Y0047600D01*
X0084876Y0047600D01*
X0086309Y0048194D01*
X0087406Y0049291D01*
X0087471Y0049448D01*
X0089719Y0047200D01*
X0093281Y0047200D01*
X0094511Y0048430D02*
X0128206Y0048430D01*
X0127207Y0049429D02*
X0095510Y0049429D01*
X0095800Y0050427D02*
X0127000Y0050427D01*
X0127000Y0052424D02*
X0095800Y0052424D01*
X0095800Y0051426D02*
X0131200Y0051426D01*
X0131800Y0051426D02*
X0168350Y0051426D01*
X0168350Y0052424D02*
X0160174Y0052424D01*
X0160116Y0052400D02*
X0161622Y0053024D01*
X0162776Y0054178D01*
X0163400Y0055684D01*
X0163400Y0057316D01*
X0162776Y0058822D01*
X0161622Y0059976D01*
X0160116Y0060600D01*
X0152884Y0060600D01*
X0151378Y0059976D01*
X0150224Y0058822D01*
X0149600Y0057316D01*
X0149600Y0055684D01*
X0150224Y0054178D01*
X0151378Y0053024D01*
X0152884Y0052400D01*
X0160116Y0052400D01*
X0162021Y0053423D02*
X0168350Y0053423D01*
X0168350Y0054421D02*
X0162877Y0054421D01*
X0163290Y0055420D02*
X0168350Y0055420D01*
X0168350Y0056418D02*
X0163400Y0056418D01*
X0163358Y0057417D02*
X0168350Y0057417D01*
X0168350Y0058415D02*
X0162945Y0058415D01*
X0162185Y0059414D02*
X0168350Y0059414D01*
X0168350Y0060412D02*
X0160569Y0060412D01*
X0152431Y0060412D02*
X0135538Y0060412D01*
X0134846Y0060125D02*
X0136270Y0060715D01*
X0137360Y0061805D01*
X0137950Y0063229D01*
X0137950Y0064771D01*
X0137360Y0066195D01*
X0136270Y0067285D01*
X0134846Y0067875D01*
X0128154Y0067875D01*
X0126730Y0067285D01*
X0125640Y0066195D01*
X0125050Y0064771D01*
X0125050Y0063229D01*
X0125640Y0061805D01*
X0126730Y0060715D01*
X0128154Y0060125D01*
X0134846Y0060125D01*
X0136965Y0061411D02*
X0168350Y0061411D01*
X0168350Y0062409D02*
X0137610Y0062409D01*
X0137950Y0063408D02*
X0168350Y0063408D01*
X0168350Y0064406D02*
X0137950Y0064406D01*
X0137687Y0065405D02*
X0168350Y0065405D01*
X0168350Y0066403D02*
X0137151Y0066403D01*
X0135988Y0067402D02*
X0168350Y0067402D01*
X0168350Y0068400D02*
X0125800Y0068400D01*
X0125800Y0069399D02*
X0168350Y0069399D01*
X0168350Y0070397D02*
X0161749Y0070397D01*
X0160790Y0070000D02*
X0164098Y0071370D01*
X0166630Y0073902D01*
X0168000Y0077210D01*
X0168000Y0080790D01*
X0166630Y0084098D01*
X0164098Y0086630D01*
X0160790Y0088000D01*
X0157210Y0088000D01*
X0153902Y0086630D01*
X0151370Y0084098D01*
X0150000Y0080790D01*
X0150000Y0077210D01*
X0151370Y0073902D01*
X0153902Y0071370D01*
X0157210Y0070000D01*
X0160790Y0070000D01*
X0164124Y0071396D02*
X0168350Y0071396D01*
X0168350Y0072394D02*
X0165122Y0072394D01*
X0166121Y0073393D02*
X0168350Y0073393D01*
X0168350Y0074391D02*
X0166833Y0074391D01*
X0167246Y0075390D02*
X0168350Y0075390D01*
X0168350Y0076388D02*
X0167660Y0076388D01*
X0168000Y0077387D02*
X0168350Y0077387D01*
X0168350Y0078385D02*
X0168000Y0078385D01*
X0168000Y0079384D02*
X0168350Y0079384D01*
X0168350Y0080382D02*
X0168000Y0080382D01*
X0167755Y0081381D02*
X0168350Y0081381D01*
X0168350Y0082379D02*
X0167342Y0082379D01*
X0166928Y0083378D02*
X0168350Y0083378D01*
X0168350Y0084376D02*
X0166351Y0084376D01*
X0165353Y0085375D02*
X0168350Y0085375D01*
X0168350Y0086373D02*
X0164354Y0086373D01*
X0162306Y0087372D02*
X0168350Y0087372D01*
X0168350Y0088370D02*
X0004015Y0088370D01*
X0004016Y0088980D02*
X0168350Y0088980D01*
X0168350Y0004020D01*
X0003994Y0004020D01*
X0004016Y0088980D01*
X0004015Y0087372D02*
X0010694Y0087372D01*
X0012210Y0088000D02*
X0008902Y0086630D01*
X0006370Y0084098D01*
X0005000Y0080790D01*
X0005000Y0077210D01*
X0006370Y0073902D01*
X0008902Y0071370D01*
X0012210Y0070000D01*
X0015790Y0070000D01*
X0019098Y0071370D01*
X0021630Y0073902D01*
X0023000Y0077210D01*
X0023000Y0080790D01*
X0021630Y0084098D01*
X0019098Y0086630D01*
X0015790Y0088000D01*
X0012210Y0088000D01*
X0008646Y0086373D02*
X0004015Y0086373D01*
X0004015Y0085375D02*
X0007647Y0085375D01*
X0006649Y0084376D02*
X0004014Y0084376D01*
X0004014Y0083378D02*
X0006072Y0083378D01*
X0005658Y0082379D02*
X0004014Y0082379D01*
X0004014Y0081381D02*
X0005245Y0081381D01*
X0005000Y0080382D02*
X0004013Y0080382D01*
X0004013Y0079384D02*
X0005000Y0079384D01*
X0005000Y0078385D02*
X0004013Y0078385D01*
X0004013Y0077387D02*
X0005000Y0077387D01*
X0005340Y0076388D02*
X0004012Y0076388D01*
X0004012Y0075390D02*
X0005754Y0075390D01*
X0006167Y0074391D02*
X0004012Y0074391D01*
X0004012Y0073393D02*
X0006879Y0073393D01*
X0007878Y0072394D02*
X0004011Y0072394D01*
X0004011Y0071396D02*
X0008876Y0071396D01*
X0011251Y0070397D02*
X0004011Y0070397D01*
X0004011Y0069399D02*
X0056959Y0069399D01*
X0056866Y0069581D02*
X0057224Y0068879D01*
X0057686Y0068243D01*
X0058243Y0067686D01*
X0058879Y0067224D01*
X0059581Y0066866D01*
X0060329Y0066623D01*
X0061016Y0066514D01*
X0061016Y0071016D01*
X0061984Y0071016D01*
X0061984Y0066514D01*
X0062671Y0066623D01*
X0063419Y0066866D01*
X0064121Y0067224D01*
X0064757Y0067686D01*
X0065314Y0068243D01*
X0065776Y0068879D01*
X0066134Y0069581D01*
X0066377Y0070329D01*
X0066486Y0071016D01*
X0061984Y0071016D01*
X0061984Y0071984D01*
X0066486Y0071984D01*
X0066377Y0072671D01*
X0066134Y0073419D01*
X0065776Y0074121D01*
X0065314Y0074757D01*
X0064757Y0075314D01*
X0064121Y0075776D01*
X0063419Y0076134D01*
X0062671Y0076377D01*
X0061984Y0076486D01*
X0061984Y0071984D01*
X0061016Y0071984D01*
X0061016Y0071016D01*
X0056514Y0071016D01*
X0056623Y0070329D01*
X0056866Y0069581D01*
X0056612Y0070397D02*
X0039403Y0070397D01*
X0038405Y0069400D02*
X0036800Y0069400D01*
X0036800Y0073700D01*
X0036800Y0074300D01*
X0041100Y0074300D01*
X0041100Y0075905D01*
X0038405Y0078600D01*
X0036800Y0078600D01*
X0036800Y0074300D01*
X0036200Y0074300D01*
X0036200Y0078600D01*
X0034595Y0078600D01*
X0031900Y0075905D01*
X0031900Y0074300D01*
X0036200Y0074300D01*
X0036200Y0073700D01*
X0036800Y0073700D01*
X0041100Y0073700D01*
X0041100Y0072095D01*
X0038405Y0069400D01*
X0036800Y0070397D02*
X0036200Y0070397D01*
X0036200Y0069400D02*
X0034595Y0069400D01*
X0031900Y0072095D01*
X0031900Y0073700D01*
X0036200Y0073700D01*
X0036200Y0069400D01*
X0033597Y0070397D02*
X0029120Y0070397D01*
X0028992Y0070270D02*
X0030230Y0071508D01*
X0030900Y0073125D01*
X0030900Y0074875D01*
X0030230Y0076492D01*
X0028992Y0077730D01*
X0027375Y0078400D01*
X0025625Y0078400D01*
X0024008Y0077730D01*
X0022770Y0076492D01*
X0022100Y0074875D01*
X0022100Y0073125D01*
X0022770Y0071508D01*
X0024008Y0070270D01*
X0025625Y0069600D01*
X0027375Y0069600D01*
X0028992Y0070270D01*
X0030118Y0071396D02*
X0032599Y0071396D01*
X0031900Y0072394D02*
X0030597Y0072394D01*
X0030900Y0073393D02*
X0031900Y0073393D01*
X0031900Y0074391D02*
X0030900Y0074391D01*
X0030687Y0075390D02*
X0031900Y0075390D01*
X0032383Y0076388D02*
X0030273Y0076388D01*
X0029336Y0077387D02*
X0033381Y0077387D01*
X0034380Y0078385D02*
X0027411Y0078385D01*
X0025589Y0078385D02*
X0023000Y0078385D01*
X0023000Y0077387D02*
X0023664Y0077387D01*
X0022727Y0076388D02*
X0022660Y0076388D01*
X0022313Y0075390D02*
X0022246Y0075390D01*
X0022100Y0074391D02*
X0021833Y0074391D01*
X0022100Y0073393D02*
X0021121Y0073393D01*
X0020122Y0072394D02*
X0022403Y0072394D01*
X0022882Y0071396D02*
X0019124Y0071396D01*
X0016749Y0070397D02*
X0023880Y0070397D01*
X0036200Y0071396D02*
X0036800Y0071396D01*
X0036800Y0072394D02*
X0036200Y0072394D01*
X0036200Y0073393D02*
X0036800Y0073393D01*
X0036800Y0074391D02*
X0036200Y0074391D01*
X0036200Y0075390D02*
X0036800Y0075390D01*
X0036800Y0076388D02*
X0036200Y0076388D01*
X0036200Y0077387D02*
X0036800Y0077387D01*
X0036800Y0078385D02*
X0036200Y0078385D01*
X0038620Y0078385D02*
X0057826Y0078385D01*
X0057431Y0078781D02*
X0058781Y0077431D01*
X0060545Y0076700D01*
X0062455Y0076700D01*
X0064219Y0077431D01*
X0065569Y0078781D01*
X0066300Y0080545D01*
X0066300Y0082455D01*
X0065569Y0084219D01*
X0064219Y0085569D01*
X0062455Y0086300D01*
X0060545Y0086300D01*
X0058781Y0085569D01*
X0057431Y0084219D01*
X0056700Y0082455D01*
X0056700Y0080545D01*
X0057431Y0078781D01*
X0057181Y0079384D02*
X0023000Y0079384D01*
X0023000Y0080382D02*
X0056767Y0080382D01*
X0056700Y0081381D02*
X0022755Y0081381D01*
X0022342Y0082379D02*
X0056700Y0082379D01*
X0057082Y0083378D02*
X0021928Y0083378D01*
X0021351Y0084376D02*
X0057588Y0084376D01*
X0058587Y0085375D02*
X0020353Y0085375D01*
X0019354Y0086373D02*
X0105819Y0086373D01*
X0105640Y0086195D02*
X0105050Y0084771D01*
X0105050Y0083229D01*
X0105640Y0081805D01*
X0106645Y0080800D01*
X0098254Y0080800D01*
X0083254Y0065800D01*
X0063254Y0065800D01*
X0060754Y0063300D01*
X0059700Y0062246D01*
X0059700Y0047246D01*
X0056785Y0044330D01*
X0056309Y0044806D01*
X0054876Y0045400D01*
X0048124Y0045400D01*
X0046691Y0044806D01*
X0045594Y0043709D01*
X0045000Y0042276D01*
X0045000Y0040724D01*
X0045594Y0039291D01*
X0046691Y0038194D01*
X0048124Y0037600D01*
X0054876Y0037600D01*
X0056309Y0038194D01*
X0057406Y0039291D01*
X0057809Y0040264D01*
X0058300Y0040754D01*
X0063300Y0045754D01*
X0063300Y0060754D01*
X0064746Y0062200D01*
X0084746Y0062200D01*
X0085800Y0063254D01*
X0099746Y0077200D01*
X0117591Y0077200D01*
X0117855Y0076564D01*
X0119064Y0075355D01*
X0120645Y0074700D01*
X0122355Y0074700D01*
X0123936Y0075355D01*
X0125145Y0076564D01*
X0125800Y0078145D01*
X0125800Y0079855D01*
X0125145Y0081436D01*
X0123936Y0082645D01*
X0122355Y0083300D01*
X0120645Y0083300D01*
X0119064Y0082645D01*
X0117855Y0081436D01*
X0117591Y0080800D01*
X0116355Y0080800D01*
X0117360Y0081805D01*
X0117950Y0083229D01*
X0117950Y0084771D01*
X0117360Y0086195D01*
X0116270Y0087285D01*
X0114846Y0087875D01*
X0108154Y0087875D01*
X0106730Y0087285D01*
X0105640Y0086195D01*
X0105301Y0085375D02*
X0086300Y0085375D01*
X0086300Y0085538D02*
X0085538Y0086300D01*
X0077462Y0086300D01*
X0076700Y0085538D01*
X0076700Y0077462D01*
X0077462Y0076700D01*
X0085538Y0076700D01*
X0086300Y0077462D01*
X0086300Y0085538D01*
X0086300Y0084376D02*
X0105050Y0084376D01*
X0105050Y0083378D02*
X0086300Y0083378D01*
X0086300Y0082379D02*
X0105402Y0082379D01*
X0106064Y0081381D02*
X0086300Y0081381D01*
X0086300Y0080382D02*
X0097837Y0080382D01*
X0096838Y0079384D02*
X0086300Y0079384D01*
X0086300Y0078385D02*
X0095840Y0078385D01*
X0094841Y0077387D02*
X0086225Y0077387D01*
X0084398Y0075390D02*
X0092844Y0075390D01*
X0093843Y0076388D02*
X0062598Y0076388D01*
X0061984Y0076388D02*
X0061016Y0076388D01*
X0061016Y0076486D02*
X0060329Y0076377D01*
X0059581Y0076134D01*
X0058879Y0075776D01*
X0058243Y0075314D01*
X0057686Y0074757D01*
X0057224Y0074121D01*
X0056866Y0073419D01*
X0056623Y0072671D01*
X0056514Y0071984D01*
X0061016Y0071984D01*
X0061016Y0076486D01*
X0060402Y0076388D02*
X0040617Y0076388D01*
X0041100Y0075390D02*
X0058347Y0075390D01*
X0057420Y0074391D02*
X0041100Y0074391D01*
X0041100Y0073393D02*
X0056858Y0073393D01*
X0056579Y0072394D02*
X0041100Y0072394D01*
X0040401Y0071396D02*
X0061016Y0071396D01*
X0061984Y0071396D02*
X0066700Y0071396D01*
X0066700Y0070545D02*
X0067431Y0068781D01*
X0068781Y0067431D01*
X0070545Y0066700D01*
X0072455Y0066700D01*
X0074219Y0067431D01*
X0075569Y0068781D01*
X0076300Y0070545D01*
X0076300Y0072455D01*
X0075569Y0074219D01*
X0074219Y0075569D01*
X0072455Y0076300D01*
X0070545Y0076300D01*
X0068781Y0075569D01*
X0067431Y0074219D01*
X0066700Y0072455D01*
X0066700Y0070545D01*
X0066761Y0070397D02*
X0066388Y0070397D01*
X0066041Y0069399D02*
X0067175Y0069399D01*
X0067812Y0068400D02*
X0065428Y0068400D01*
X0064366Y0067402D02*
X0068851Y0067402D01*
X0074149Y0067402D02*
X0078851Y0067402D01*
X0078781Y0067431D02*
X0080545Y0066700D01*
X0082455Y0066700D01*
X0084219Y0067431D01*
X0085569Y0068781D01*
X0086300Y0070545D01*
X0086300Y0072455D01*
X0085569Y0074219D01*
X0084219Y0075569D01*
X0082455Y0076300D01*
X0080545Y0076300D01*
X0078781Y0075569D01*
X0077431Y0074219D01*
X0076700Y0072455D01*
X0076700Y0070545D01*
X0077431Y0068781D01*
X0078781Y0067431D01*
X0077812Y0068400D02*
X0075188Y0068400D01*
X0075825Y0069399D02*
X0077175Y0069399D01*
X0076761Y0070397D02*
X0076239Y0070397D01*
X0076300Y0071396D02*
X0076700Y0071396D01*
X0076700Y0072394D02*
X0076300Y0072394D01*
X0075911Y0073393D02*
X0077089Y0073393D01*
X0077603Y0074391D02*
X0075397Y0074391D01*
X0074398Y0075390D02*
X0078602Y0075390D01*
X0076775Y0077387D02*
X0074113Y0077387D01*
X0074219Y0077431D02*
X0075569Y0078781D01*
X0076300Y0080545D01*
X0076300Y0082455D01*
X0075569Y0084219D01*
X0074219Y0085569D01*
X0072455Y0086300D01*
X0070545Y0086300D01*
X0068781Y0085569D01*
X0067431Y0084219D01*
X0066700Y0082455D01*
X0066700Y0080545D01*
X0067431Y0078781D01*
X0068781Y0077431D01*
X0070545Y0076700D01*
X0072455Y0076700D01*
X0074219Y0077431D01*
X0075174Y0078385D02*
X0076700Y0078385D01*
X0076700Y0079384D02*
X0075819Y0079384D01*
X0076233Y0080382D02*
X0076700Y0080382D01*
X0076700Y0081381D02*
X0076300Y0081381D01*
X0076300Y0082379D02*
X0076700Y0082379D01*
X0076700Y0083378D02*
X0075918Y0083378D01*
X0075412Y0084376D02*
X0076700Y0084376D01*
X0076700Y0085375D02*
X0074413Y0085375D01*
X0068587Y0085375D02*
X0064413Y0085375D01*
X0065412Y0084376D02*
X0067588Y0084376D01*
X0067082Y0083378D02*
X0065918Y0083378D01*
X0066300Y0082379D02*
X0066700Y0082379D01*
X0066700Y0081381D02*
X0066300Y0081381D01*
X0066233Y0080382D02*
X0066767Y0080382D01*
X0067181Y0079384D02*
X0065819Y0079384D01*
X0065174Y0078385D02*
X0067826Y0078385D01*
X0068887Y0077387D02*
X0064113Y0077387D01*
X0064653Y0075390D02*
X0068602Y0075390D01*
X0067603Y0074391D02*
X0065580Y0074391D01*
X0066142Y0073393D02*
X0067089Y0073393D01*
X0066700Y0072394D02*
X0066421Y0072394D01*
X0061984Y0072394D02*
X0061016Y0072394D01*
X0061016Y0073393D02*
X0061984Y0073393D01*
X0061984Y0074391D02*
X0061016Y0074391D01*
X0061016Y0075390D02*
X0061984Y0075390D01*
X0058887Y0077387D02*
X0039619Y0077387D01*
X0057572Y0068400D02*
X0004010Y0068400D01*
X0004010Y0067402D02*
X0058634Y0067402D01*
X0061016Y0067402D02*
X0061984Y0067402D01*
X0061984Y0068400D02*
X0061016Y0068400D01*
X0061016Y0069399D02*
X0061984Y0069399D01*
X0061984Y0070397D02*
X0061016Y0070397D01*
X0062859Y0065405D02*
X0004010Y0065405D01*
X0004010Y0066403D02*
X0083858Y0066403D01*
X0084149Y0067402D02*
X0084856Y0067402D01*
X0085188Y0068400D02*
X0085855Y0068400D01*
X0085825Y0069399D02*
X0086853Y0069399D01*
X0086239Y0070397D02*
X0087852Y0070397D01*
X0088850Y0071396D02*
X0086300Y0071396D01*
X0086300Y0072394D02*
X0089849Y0072394D01*
X0090847Y0073393D02*
X0085911Y0073393D01*
X0085397Y0074391D02*
X0091846Y0074391D01*
X0094940Y0072394D02*
X0118813Y0072394D01*
X0117838Y0071396D02*
X0093941Y0071396D01*
X0092943Y0070397D02*
X0097852Y0070397D01*
X0096853Y0069399D02*
X0091944Y0069399D01*
X0090946Y0068400D02*
X0095855Y0068400D01*
X0094856Y0067402D02*
X0089947Y0067402D01*
X0088949Y0066403D02*
X0093858Y0066403D01*
X0092859Y0065405D02*
X0087950Y0065405D01*
X0086952Y0064406D02*
X0091861Y0064406D01*
X0090862Y0063408D02*
X0085953Y0063408D01*
X0084955Y0062409D02*
X0089864Y0062409D01*
X0089700Y0061411D02*
X0063956Y0061411D01*
X0061500Y0061500D02*
X0061500Y0046500D01*
X0056500Y0041500D01*
X0051500Y0041500D01*
X0056560Y0038445D02*
X0064700Y0038445D01*
X0064700Y0039443D02*
X0057469Y0039443D01*
X0057988Y0040442D02*
X0064700Y0040442D01*
X0064700Y0041440D02*
X0058986Y0041440D01*
X0059985Y0042439D02*
X0064700Y0042439D01*
X0064700Y0043437D02*
X0060983Y0043437D01*
X0061982Y0044436D02*
X0064700Y0044436D01*
X0064700Y0045434D02*
X0062980Y0045434D01*
X0063300Y0046433D02*
X0064700Y0046433D01*
X0064700Y0047432D02*
X0063300Y0047432D01*
X0063300Y0048430D02*
X0064700Y0048430D01*
X0064700Y0049429D02*
X0063300Y0049429D01*
X0063300Y0050427D02*
X0064700Y0050427D01*
X0064700Y0051426D02*
X0063300Y0051426D01*
X0063300Y0052424D02*
X0064700Y0052424D01*
X0064700Y0053423D02*
X0063300Y0053423D01*
X0063300Y0054421D02*
X0064700Y0054421D01*
X0064700Y0055420D02*
X0063300Y0055420D01*
X0063300Y0056418D02*
X0064700Y0056418D01*
X0064871Y0057417D02*
X0063300Y0057417D01*
X0063300Y0058415D02*
X0065870Y0058415D01*
X0066868Y0059414D02*
X0063300Y0059414D01*
X0063300Y0060412D02*
X0067867Y0060412D01*
X0069000Y0059000D02*
X0084000Y0059000D01*
X0091500Y0051500D01*
X0091500Y0061500D01*
X0099000Y0069000D01*
X0121500Y0069000D01*
X0125492Y0067402D02*
X0127012Y0067402D01*
X0125849Y0066403D02*
X0124984Y0066403D01*
X0125313Y0065405D02*
X0123986Y0065405D01*
X0125050Y0064406D02*
X0115375Y0064406D01*
X0115375Y0063408D02*
X0125050Y0063408D01*
X0125390Y0062409D02*
X0115375Y0062409D01*
X0115375Y0061411D02*
X0126035Y0061411D01*
X0127462Y0060412D02*
X0114900Y0060412D01*
X0108100Y0060412D02*
X0093300Y0060412D01*
X0093300Y0059414D02*
X0150815Y0059414D01*
X0150055Y0058415D02*
X0093300Y0058415D01*
X0093300Y0057417D02*
X0149642Y0057417D01*
X0149600Y0056418D02*
X0093300Y0056418D01*
X0093661Y0055420D02*
X0129056Y0055420D01*
X0128057Y0054421D02*
X0094660Y0054421D01*
X0095659Y0053423D02*
X0127059Y0053423D01*
X0131200Y0053423D02*
X0131800Y0053423D01*
X0131800Y0054421D02*
X0131200Y0054421D01*
X0131200Y0055420D02*
X0131800Y0055420D01*
X0133944Y0055420D02*
X0149710Y0055420D01*
X0150123Y0054421D02*
X0134943Y0054421D01*
X0135941Y0053423D02*
X0150979Y0053423D01*
X0152826Y0052424D02*
X0136000Y0052424D01*
X0136000Y0051200D02*
X0131800Y0051200D01*
X0131800Y0047000D01*
X0133364Y0047000D01*
X0136000Y0049636D01*
X0136000Y0051200D01*
X0136000Y0050427D02*
X0151936Y0050427D01*
X0152049Y0050485D02*
X0151446Y0050178D01*
X0150899Y0049780D01*
X0150420Y0049301D01*
X0150022Y0048754D01*
X0149715Y0048151D01*
X0149506Y0047507D01*
X0149410Y0046900D01*
X0156100Y0046900D01*
X0156100Y0050800D01*
X0153362Y0050800D01*
X0152693Y0050694D01*
X0152049Y0050485D01*
X0150547Y0049429D02*
X0135792Y0049429D01*
X0134794Y0048430D02*
X0149857Y0048430D01*
X0149494Y0047432D02*
X0133795Y0047432D01*
X0131800Y0047432D02*
X0131200Y0047432D01*
X0131200Y0048430D02*
X0131800Y0048430D01*
X0131800Y0049429D02*
X0131200Y0049429D01*
X0131200Y0050427D02*
X0131800Y0050427D01*
X0131800Y0052424D02*
X0131200Y0052424D01*
X0133647Y0045434D02*
X0149525Y0045434D01*
X0149506Y0045493D02*
X0149715Y0044849D01*
X0150022Y0044246D01*
X0150420Y0043699D01*
X0150899Y0043220D01*
X0151446Y0042822D01*
X0152049Y0042515D01*
X0152693Y0042306D01*
X0153362Y0042200D01*
X0156100Y0042200D01*
X0156100Y0046100D01*
X0156900Y0046100D01*
X0156900Y0046900D01*
X0156100Y0046900D01*
X0156100Y0046100D01*
X0149410Y0046100D01*
X0149506Y0045493D01*
X0149926Y0044436D02*
X0134645Y0044436D01*
X0135644Y0043437D02*
X0150681Y0043437D01*
X0152283Y0042439D02*
X0135800Y0042439D01*
X0135800Y0041440D02*
X0168350Y0041440D01*
X0168350Y0040442D02*
X0135800Y0040442D01*
X0135525Y0039443D02*
X0168350Y0039443D01*
X0168350Y0038445D02*
X0134526Y0038445D01*
X0133528Y0037446D02*
X0168350Y0037446D01*
X0168350Y0036448D02*
X0073600Y0036448D01*
X0073600Y0037446D02*
X0089472Y0037446D01*
X0088474Y0038445D02*
X0086560Y0038445D01*
X0087469Y0039443D02*
X0087475Y0039443D01*
X0089368Y0035449D02*
X0073600Y0035449D01*
X0073600Y0034451D02*
X0076335Y0034451D01*
X0075487Y0033452D02*
X0073600Y0033452D01*
X0073600Y0032454D02*
X0075074Y0032454D01*
X0075000Y0031455D02*
X0073600Y0031455D01*
X0073600Y0030457D02*
X0075111Y0030457D01*
X0075524Y0029458D02*
X0073600Y0029458D01*
X0073600Y0028460D02*
X0076425Y0028460D01*
X0073600Y0027461D02*
X0089458Y0027461D01*
X0088459Y0028460D02*
X0086575Y0028460D01*
X0089383Y0025464D02*
X0073600Y0025464D01*
X0073600Y0024466D02*
X0076350Y0024466D01*
X0075494Y0023467D02*
X0073600Y0023467D01*
X0073600Y0022469D02*
X0075080Y0022469D01*
X0075000Y0021470D02*
X0073600Y0021470D01*
X0073600Y0020472D02*
X0075105Y0020472D01*
X0075518Y0019473D02*
X0073600Y0019473D01*
X0073600Y0018475D02*
X0076410Y0018475D01*
X0073600Y0015479D02*
X0150000Y0015479D01*
X0150000Y0014481D02*
X0073600Y0014481D01*
X0073600Y0013482D02*
X0150000Y0013482D01*
X0150000Y0012484D02*
X0074097Y0012484D01*
X0075096Y0011485D02*
X0150300Y0011485D01*
X0150714Y0010487D02*
X0075800Y0010487D01*
X0075800Y0009488D02*
X0151127Y0009488D01*
X0151782Y0008490D02*
X0075800Y0008490D01*
X0075800Y0007491D02*
X0152781Y0007491D01*
X0153780Y0006493D02*
X0075074Y0006493D01*
X0074075Y0005494D02*
X0156017Y0005494D01*
X0161983Y0005494D02*
X0168350Y0005494D01*
X0168350Y0004496D02*
X0003994Y0004496D01*
X0003995Y0005494D02*
X0011017Y0005494D01*
X0012210Y0005000D02*
X0008902Y0006370D01*
X0006370Y0008902D01*
X0005000Y0012210D01*
X0005000Y0015790D01*
X0006370Y0019098D01*
X0008902Y0021630D01*
X0012210Y0023000D01*
X0015790Y0023000D01*
X0019098Y0021630D01*
X0021630Y0019098D01*
X0023000Y0015790D01*
X0023000Y0012210D01*
X0021630Y0008902D01*
X0019098Y0006370D01*
X0015790Y0005000D01*
X0012210Y0005000D01*
X0008780Y0006493D02*
X0003995Y0006493D01*
X0003995Y0007491D02*
X0007781Y0007491D01*
X0006782Y0008490D02*
X0003995Y0008490D01*
X0003996Y0009488D02*
X0006127Y0009488D01*
X0005714Y0010487D02*
X0003996Y0010487D01*
X0003996Y0011485D02*
X0005300Y0011485D01*
X0005000Y0012484D02*
X0003996Y0012484D01*
X0003997Y0013482D02*
X0005000Y0013482D01*
X0005000Y0014481D02*
X0003997Y0014481D01*
X0003997Y0015479D02*
X0005000Y0015479D01*
X0005285Y0016478D02*
X0003997Y0016478D01*
X0003998Y0017476D02*
X0005698Y0017476D01*
X0006112Y0018475D02*
X0003998Y0018475D01*
X0003998Y0019473D02*
X0006745Y0019473D01*
X0007744Y0020472D02*
X0003998Y0020472D01*
X0003999Y0021470D02*
X0008742Y0021470D01*
X0010927Y0022469D02*
X0003999Y0022469D01*
X0003999Y0023467D02*
X0045301Y0023467D01*
X0045393Y0023649D02*
X0045100Y0023074D01*
X0044901Y0022460D01*
X0044800Y0021823D01*
X0044800Y0021800D01*
X0051200Y0021800D01*
X0051200Y0025600D01*
X0048577Y0025600D01*
X0047940Y0025499D01*
X0047326Y0025300D01*
X0046751Y0025007D01*
X0046229Y0024627D01*
X0045773Y0024171D01*
X0045393Y0023649D01*
X0046067Y0024466D02*
X0003999Y0024466D01*
X0004000Y0025464D02*
X0047833Y0025464D01*
X0051200Y0025464D02*
X0051800Y0025464D01*
X0051800Y0025600D02*
X0051800Y0021800D01*
X0051200Y0021800D01*
X0051200Y0021200D01*
X0051800Y0021200D01*
X0051800Y0021800D01*
X0058200Y0021800D01*
X0058200Y0021823D01*
X0058099Y0022460D01*
X0057900Y0023074D01*
X0057607Y0023649D01*
X0057227Y0024171D01*
X0056771Y0024627D01*
X0056249Y0025007D01*
X0055674Y0025300D01*
X0055060Y0025499D01*
X0054423Y0025600D01*
X0051800Y0025600D01*
X0051800Y0024466D02*
X0051200Y0024466D01*
X0051200Y0023467D02*
X0051800Y0023467D01*
X0051800Y0022469D02*
X0051200Y0022469D01*
X0051200Y0021470D02*
X0019258Y0021470D01*
X0020256Y0020472D02*
X0044923Y0020472D01*
X0044901Y0020540D02*
X0045100Y0019926D01*
X0045393Y0019351D01*
X0045773Y0018829D01*
X0046229Y0018373D01*
X0046751Y0017993D01*
X0047326Y0017700D01*
X0047940Y0017501D01*
X0048577Y0017400D01*
X0051200Y0017400D01*
X0051200Y0021200D01*
X0044800Y0021200D01*
X0044800Y0021177D01*
X0044901Y0020540D01*
X0045331Y0019473D02*
X0021255Y0019473D01*
X0021888Y0018475D02*
X0046127Y0018475D01*
X0048096Y0017476D02*
X0022302Y0017476D01*
X0022715Y0016478D02*
X0069400Y0016478D01*
X0069400Y0017476D02*
X0054904Y0017476D01*
X0055060Y0017501D02*
X0055674Y0017700D01*
X0056249Y0017993D01*
X0056771Y0018373D01*
X0057227Y0018829D01*
X0057607Y0019351D01*
X0057900Y0019926D01*
X0058099Y0020540D01*
X0058200Y0021177D01*
X0058200Y0021200D01*
X0051800Y0021200D01*
X0051800Y0017400D01*
X0054423Y0017400D01*
X0055060Y0017501D01*
X0056873Y0018475D02*
X0069400Y0018475D01*
X0069400Y0019473D02*
X0057669Y0019473D01*
X0058077Y0020472D02*
X0069400Y0020472D01*
X0069400Y0021470D02*
X0051800Y0021470D01*
X0051800Y0020472D02*
X0051200Y0020472D01*
X0051200Y0019473D02*
X0051800Y0019473D01*
X0051800Y0018475D02*
X0051200Y0018475D01*
X0051200Y0017476D02*
X0051800Y0017476D01*
X0057000Y0010864D02*
X0059636Y0013500D01*
X0061200Y0013500D01*
X0061200Y0009300D01*
X0061800Y0009300D01*
X0066000Y0009300D01*
X0066000Y0010864D01*
X0063364Y0013500D01*
X0061800Y0013500D01*
X0061800Y0009300D01*
X0061800Y0008700D01*
X0066000Y0008700D01*
X0066000Y0007136D01*
X0063364Y0004500D01*
X0061800Y0004500D01*
X0061800Y0008700D01*
X0061200Y0008700D01*
X0061200Y0004500D01*
X0059636Y0004500D01*
X0057000Y0007136D01*
X0057000Y0008700D01*
X0061200Y0008700D01*
X0061200Y0009300D01*
X0057000Y0009300D01*
X0057000Y0010864D01*
X0057000Y0010487D02*
X0040800Y0010487D01*
X0040800Y0009719D02*
X0038281Y0007200D01*
X0034719Y0007200D01*
X0032200Y0009719D01*
X0032200Y0013281D01*
X0034719Y0015800D01*
X0038281Y0015800D01*
X0040800Y0013281D01*
X0040800Y0009719D01*
X0040569Y0009488D02*
X0057000Y0009488D01*
X0057000Y0008490D02*
X0039571Y0008490D01*
X0038572Y0007491D02*
X0057000Y0007491D01*
X0057643Y0006493D02*
X0019220Y0006493D01*
X0020219Y0007491D02*
X0034428Y0007491D01*
X0033429Y0008490D02*
X0021217Y0008490D01*
X0021873Y0009488D02*
X0032431Y0009488D01*
X0032200Y0010487D02*
X0022286Y0010487D01*
X0022700Y0011485D02*
X0032200Y0011485D01*
X0032200Y0012484D02*
X0023000Y0012484D01*
X0023000Y0013482D02*
X0032401Y0013482D01*
X0033400Y0014481D02*
X0023000Y0014481D01*
X0023000Y0015479D02*
X0034398Y0015479D01*
X0038602Y0015479D02*
X0069400Y0015479D01*
X0069400Y0014481D02*
X0039600Y0014481D01*
X0040599Y0013482D02*
X0059618Y0013482D01*
X0058620Y0012484D02*
X0040800Y0012484D01*
X0040800Y0011485D02*
X0057621Y0011485D01*
X0061200Y0011485D02*
X0061800Y0011485D01*
X0061800Y0010487D02*
X0061200Y0010487D01*
X0061200Y0009488D02*
X0061800Y0009488D01*
X0061800Y0008490D02*
X0061200Y0008490D01*
X0061200Y0007491D02*
X0061800Y0007491D01*
X0061800Y0006493D02*
X0061200Y0006493D01*
X0061200Y0005494D02*
X0061800Y0005494D01*
X0064358Y0005494D02*
X0068925Y0005494D01*
X0067926Y0006493D02*
X0065357Y0006493D01*
X0066000Y0007491D02*
X0067200Y0007491D01*
X0067200Y0008490D02*
X0066000Y0008490D01*
X0066000Y0009488D02*
X0067200Y0009488D01*
X0067200Y0010487D02*
X0066000Y0010487D01*
X0065379Y0011485D02*
X0067904Y0011485D01*
X0068903Y0012484D02*
X0064380Y0012484D01*
X0063382Y0013482D02*
X0069400Y0013482D01*
X0061800Y0013482D02*
X0061200Y0013482D01*
X0061200Y0012484D02*
X0061800Y0012484D01*
X0058642Y0005494D02*
X0016983Y0005494D01*
X0017073Y0022469D02*
X0044904Y0022469D01*
X0046425Y0028460D02*
X0004000Y0028460D01*
X0004001Y0029458D02*
X0045524Y0029458D01*
X0045111Y0030457D02*
X0004001Y0030457D01*
X0004001Y0031455D02*
X0045000Y0031455D01*
X0045074Y0032454D02*
X0004001Y0032454D01*
X0004002Y0033452D02*
X0045487Y0033452D01*
X0046335Y0034451D02*
X0004002Y0034451D01*
X0004002Y0035449D02*
X0062904Y0035449D01*
X0061905Y0034451D02*
X0056665Y0034451D01*
X0057513Y0033452D02*
X0060907Y0033452D01*
X0061500Y0031500D02*
X0051500Y0031500D01*
X0056575Y0028460D02*
X0069400Y0028460D01*
X0069400Y0029458D02*
X0057476Y0029458D01*
X0061500Y0031500D02*
X0066500Y0036500D01*
X0066500Y0056500D01*
X0069000Y0059000D01*
X0068964Y0056418D02*
X0084036Y0056418D01*
X0085035Y0055420D02*
X0068300Y0055420D01*
X0068300Y0054421D02*
X0076306Y0054421D01*
X0075453Y0053423D02*
X0068300Y0053423D01*
X0068300Y0052424D02*
X0074454Y0052424D01*
X0073456Y0051426D02*
X0068300Y0051426D01*
X0068300Y0050427D02*
X0072457Y0050427D01*
X0071459Y0049429D02*
X0068300Y0049429D01*
X0068300Y0048430D02*
X0070460Y0048430D01*
X0069462Y0047432D02*
X0068300Y0047432D01*
X0068300Y0046433D02*
X0069400Y0046433D01*
X0069400Y0045434D02*
X0068300Y0045434D01*
X0068300Y0044436D02*
X0069400Y0044436D01*
X0069400Y0043437D02*
X0068300Y0043437D01*
X0068300Y0042439D02*
X0069400Y0042439D01*
X0069400Y0041440D02*
X0068300Y0041440D01*
X0068300Y0040442D02*
X0069400Y0040442D01*
X0069400Y0039443D02*
X0068300Y0039443D01*
X0068300Y0038445D02*
X0069400Y0038445D01*
X0069400Y0037446D02*
X0068300Y0037446D01*
X0068300Y0036448D02*
X0069400Y0036448D01*
X0069400Y0035449D02*
X0067995Y0035449D01*
X0066996Y0034451D02*
X0069400Y0034451D01*
X0069400Y0033452D02*
X0065998Y0033452D01*
X0064999Y0032454D02*
X0069400Y0032454D01*
X0069400Y0031455D02*
X0064001Y0031455D01*
X0063002Y0030457D02*
X0069400Y0030457D01*
X0069400Y0027461D02*
X0004000Y0027461D01*
X0004000Y0026463D02*
X0069400Y0026463D01*
X0069400Y0025464D02*
X0055167Y0025464D01*
X0056933Y0024466D02*
X0069400Y0024466D01*
X0069400Y0023467D02*
X0057699Y0023467D01*
X0058096Y0022469D02*
X0069400Y0022469D01*
X0073600Y0026463D02*
X0168350Y0026463D01*
X0168350Y0027461D02*
X0133542Y0027461D01*
X0134541Y0028460D02*
X0168350Y0028460D01*
X0168350Y0029458D02*
X0135539Y0029458D01*
X0135800Y0030457D02*
X0168350Y0030457D01*
X0168350Y0031455D02*
X0135800Y0031455D01*
X0135800Y0032454D02*
X0168350Y0032454D01*
X0168350Y0033452D02*
X0135629Y0033452D01*
X0134630Y0034451D02*
X0168350Y0034451D01*
X0168350Y0035449D02*
X0133632Y0035449D01*
X0133617Y0025464D02*
X0168350Y0025464D01*
X0168350Y0024466D02*
X0134615Y0024466D01*
X0135614Y0023467D02*
X0168350Y0023467D01*
X0168350Y0022469D02*
X0162073Y0022469D01*
X0164258Y0021470D02*
X0168350Y0021470D01*
X0168350Y0020472D02*
X0165256Y0020472D01*
X0166255Y0019473D02*
X0168350Y0019473D01*
X0168350Y0018475D02*
X0166888Y0018475D01*
X0167302Y0017476D02*
X0168350Y0017476D01*
X0168350Y0016478D02*
X0167715Y0016478D01*
X0168000Y0015479D02*
X0168350Y0015479D01*
X0168350Y0014481D02*
X0168000Y0014481D01*
X0168000Y0013482D02*
X0168350Y0013482D01*
X0168350Y0012484D02*
X0168000Y0012484D01*
X0167700Y0011485D02*
X0168350Y0011485D01*
X0168350Y0010487D02*
X0167286Y0010487D01*
X0166873Y0009488D02*
X0168350Y0009488D01*
X0168350Y0008490D02*
X0166217Y0008490D01*
X0165219Y0007491D02*
X0168350Y0007491D01*
X0168350Y0006493D02*
X0164220Y0006493D01*
X0155927Y0022469D02*
X0135800Y0022469D01*
X0156100Y0042439D02*
X0156900Y0042439D01*
X0156900Y0042200D02*
X0159638Y0042200D01*
X0160307Y0042306D01*
X0160951Y0042515D01*
X0161554Y0042822D01*
X0162101Y0043220D01*
X0162580Y0043699D01*
X0162978Y0044246D01*
X0163285Y0044849D01*
X0163494Y0045493D01*
X0163590Y0046100D01*
X0156900Y0046100D01*
X0156900Y0042200D01*
X0156900Y0043437D02*
X0156100Y0043437D01*
X0156100Y0044436D02*
X0156900Y0044436D01*
X0156900Y0045434D02*
X0156100Y0045434D01*
X0156100Y0046433D02*
X0074403Y0046433D01*
X0073600Y0045434D02*
X0089353Y0045434D01*
X0088355Y0044436D02*
X0086679Y0044436D01*
X0089487Y0047432D02*
X0075401Y0047432D01*
X0076400Y0048430D02*
X0076455Y0048430D01*
X0076321Y0044436D02*
X0073600Y0044436D01*
X0073600Y0043437D02*
X0075481Y0043437D01*
X0075068Y0042439D02*
X0073600Y0042439D01*
X0073600Y0041440D02*
X0075000Y0041440D01*
X0075117Y0040442D02*
X0073600Y0040442D01*
X0073600Y0039443D02*
X0075531Y0039443D01*
X0076440Y0038445D02*
X0073600Y0038445D01*
X0064700Y0037446D02*
X0004003Y0037446D01*
X0004002Y0036448D02*
X0063902Y0036448D01*
X0056890Y0044436D02*
X0056679Y0044436D01*
X0057889Y0045434D02*
X0028475Y0045434D01*
X0028494Y0045493D02*
X0028285Y0044849D01*
X0027978Y0044246D01*
X0027580Y0043699D01*
X0027101Y0043220D01*
X0026554Y0042822D01*
X0025951Y0042515D01*
X0025307Y0042306D01*
X0024638Y0042200D01*
X0021900Y0042200D01*
X0021900Y0046100D01*
X0021900Y0046900D01*
X0021100Y0046900D01*
X0021100Y0050800D01*
X0018362Y0050800D01*
X0017693Y0050694D01*
X0017049Y0050485D01*
X0016446Y0050178D01*
X0015899Y0049780D01*
X0015420Y0049301D01*
X0015022Y0048754D01*
X0014715Y0048151D01*
X0014506Y0047507D01*
X0014410Y0046900D01*
X0021100Y0046900D01*
X0021100Y0046100D01*
X0021900Y0046100D01*
X0028590Y0046100D01*
X0028494Y0045493D01*
X0028074Y0044436D02*
X0046321Y0044436D01*
X0045481Y0043437D02*
X0027319Y0043437D01*
X0025716Y0042439D02*
X0045068Y0042439D01*
X0045000Y0041440D02*
X0004004Y0041440D01*
X0004003Y0040442D02*
X0045117Y0040442D01*
X0045531Y0039443D02*
X0004003Y0039443D01*
X0004003Y0038445D02*
X0046440Y0038445D01*
X0058887Y0046433D02*
X0021900Y0046433D01*
X0021900Y0046900D02*
X0028590Y0046900D01*
X0028494Y0047507D01*
X0028285Y0048151D01*
X0027978Y0048754D01*
X0027580Y0049301D01*
X0027101Y0049780D01*
X0026554Y0050178D01*
X0025951Y0050485D01*
X0025307Y0050694D01*
X0024638Y0050800D01*
X0021900Y0050800D01*
X0021900Y0046900D01*
X0021900Y0047432D02*
X0021100Y0047432D01*
X0021100Y0048430D02*
X0021900Y0048430D01*
X0021900Y0049429D02*
X0021100Y0049429D01*
X0021100Y0050427D02*
X0021900Y0050427D01*
X0025116Y0052400D02*
X0017884Y0052400D01*
X0016378Y0053024D01*
X0015224Y0054178D01*
X0014600Y0055684D01*
X0014600Y0057316D01*
X0015224Y0058822D01*
X0016378Y0059976D01*
X0017884Y0060600D01*
X0025116Y0060600D01*
X0026622Y0059976D01*
X0027776Y0058822D01*
X0028400Y0057316D01*
X0028400Y0055684D01*
X0027776Y0054178D01*
X0026622Y0053024D01*
X0025116Y0052400D01*
X0025174Y0052424D02*
X0032200Y0052424D01*
X0032200Y0053281D02*
X0032200Y0049719D01*
X0034719Y0047200D01*
X0038281Y0047200D01*
X0040800Y0049719D01*
X0040800Y0053281D01*
X0038281Y0055800D01*
X0034719Y0055800D01*
X0032200Y0053281D01*
X0032341Y0053423D02*
X0027021Y0053423D01*
X0027877Y0054421D02*
X0033340Y0054421D01*
X0034339Y0055420D02*
X0028290Y0055420D01*
X0028400Y0056418D02*
X0059700Y0056418D01*
X0059700Y0055420D02*
X0038661Y0055420D01*
X0039660Y0054421D02*
X0046306Y0054421D01*
X0046691Y0054806D02*
X0045594Y0053709D01*
X0045000Y0052276D01*
X0045000Y0050724D01*
X0045594Y0049291D01*
X0046691Y0048194D01*
X0048124Y0047600D01*
X0054876Y0047600D01*
X0056309Y0048194D01*
X0057406Y0049291D01*
X0058000Y0050724D01*
X0058000Y0052276D01*
X0057406Y0053709D01*
X0056309Y0054806D01*
X0054876Y0055400D01*
X0048124Y0055400D01*
X0046691Y0054806D01*
X0045475Y0053423D02*
X0040659Y0053423D01*
X0040800Y0052424D02*
X0045061Y0052424D01*
X0045000Y0051426D02*
X0040800Y0051426D01*
X0040800Y0050427D02*
X0045123Y0050427D01*
X0045537Y0049429D02*
X0040510Y0049429D01*
X0039511Y0048430D02*
X0046455Y0048430D01*
X0038513Y0047432D02*
X0059700Y0047432D01*
X0059700Y0048430D02*
X0056545Y0048430D01*
X0057463Y0049429D02*
X0059700Y0049429D01*
X0059700Y0050427D02*
X0057877Y0050427D01*
X0058000Y0051426D02*
X0059700Y0051426D01*
X0059700Y0052424D02*
X0057939Y0052424D01*
X0057525Y0053423D02*
X0059700Y0053423D01*
X0059700Y0054421D02*
X0056694Y0054421D01*
X0059700Y0057417D02*
X0028358Y0057417D01*
X0027945Y0058415D02*
X0059700Y0058415D01*
X0059700Y0059414D02*
X0027185Y0059414D01*
X0025569Y0060412D02*
X0059700Y0060412D01*
X0059700Y0061411D02*
X0004009Y0061411D01*
X0004009Y0062409D02*
X0059864Y0062409D01*
X0060862Y0063408D02*
X0004009Y0063408D01*
X0004009Y0064406D02*
X0061861Y0064406D01*
X0064000Y0064000D02*
X0061500Y0061500D01*
X0064000Y0064000D02*
X0084000Y0064000D01*
X0099000Y0079000D01*
X0121500Y0079000D01*
X0125486Y0077387D02*
X0150000Y0077387D01*
X0150000Y0078385D02*
X0125800Y0078385D01*
X0125800Y0079384D02*
X0150000Y0079384D01*
X0150000Y0080382D02*
X0135950Y0080382D01*
X0136210Y0080515D02*
X0136729Y0080892D01*
X0137183Y0081345D01*
X0137560Y0081864D01*
X0137851Y0082436D01*
X0138049Y0083046D01*
X0138150Y0083679D01*
X0138150Y0083713D01*
X0131787Y0083713D01*
X0131787Y0079925D01*
X0134395Y0079925D01*
X0135029Y0080026D01*
X0135639Y0080224D01*
X0136210Y0080515D01*
X0137209Y0081381D02*
X0150245Y0081381D01*
X0150658Y0082379D02*
X0137822Y0082379D01*
X0138102Y0083378D02*
X0151072Y0083378D01*
X0151649Y0084376D02*
X0138141Y0084376D01*
X0138150Y0084321D02*
X0138049Y0084954D01*
X0137851Y0085564D01*
X0137560Y0086136D01*
X0137183Y0086655D01*
X0136729Y0087108D01*
X0136210Y0087485D01*
X0135639Y0087776D01*
X0135029Y0087974D01*
X0134395Y0088075D01*
X0131787Y0088075D01*
X0131787Y0084287D01*
X0131213Y0084287D01*
X0131213Y0083713D01*
X0131787Y0083713D01*
X0131787Y0084287D01*
X0138150Y0084287D01*
X0138150Y0084321D01*
X0137913Y0085375D02*
X0152647Y0085375D01*
X0153646Y0086373D02*
X0137387Y0086373D01*
X0136366Y0087372D02*
X0155694Y0087372D01*
X0150340Y0076388D02*
X0124969Y0076388D01*
X0123971Y0075390D02*
X0150754Y0075390D01*
X0151167Y0074391D02*
X0096937Y0074391D01*
X0095938Y0073393D02*
X0151879Y0073393D01*
X0152878Y0072394D02*
X0124187Y0072394D01*
X0125162Y0071396D02*
X0153876Y0071396D01*
X0156251Y0070397D02*
X0125576Y0070397D01*
X0118016Y0066403D02*
X0115375Y0066403D01*
X0115375Y0065405D02*
X0119014Y0065405D01*
X0107625Y0065405D02*
X0097950Y0065405D01*
X0096952Y0064406D02*
X0107625Y0064406D01*
X0107625Y0063408D02*
X0095953Y0063408D01*
X0094955Y0062409D02*
X0107625Y0062409D01*
X0107625Y0061411D02*
X0093956Y0061411D01*
X0089700Y0060412D02*
X0085133Y0060412D01*
X0086132Y0059414D02*
X0089700Y0059414D01*
X0089700Y0058415D02*
X0087130Y0058415D01*
X0088129Y0057417D02*
X0089700Y0057417D01*
X0089700Y0056418D02*
X0089127Y0056418D01*
X0087490Y0049429D02*
X0087463Y0049429D01*
X0086545Y0048430D02*
X0088489Y0048430D01*
X0088370Y0034451D02*
X0086665Y0034451D01*
X0086650Y0024466D02*
X0088385Y0024466D01*
X0034487Y0047432D02*
X0028506Y0047432D01*
X0028143Y0048430D02*
X0033489Y0048430D01*
X0032490Y0049429D02*
X0027453Y0049429D01*
X0026064Y0050427D02*
X0032200Y0050427D01*
X0032200Y0051426D02*
X0004006Y0051426D01*
X0004006Y0052424D02*
X0017826Y0052424D01*
X0015979Y0053423D02*
X0004007Y0053423D01*
X0004007Y0054421D02*
X0015123Y0054421D01*
X0014710Y0055420D02*
X0004007Y0055420D01*
X0004007Y0056418D02*
X0014600Y0056418D01*
X0014642Y0057417D02*
X0004008Y0057417D01*
X0004008Y0058415D02*
X0015055Y0058415D01*
X0015815Y0059414D02*
X0004008Y0059414D01*
X0004008Y0060412D02*
X0017431Y0060412D01*
X0016936Y0050427D02*
X0004006Y0050427D01*
X0004006Y0049429D02*
X0015547Y0049429D01*
X0014857Y0048430D02*
X0004005Y0048430D01*
X0004005Y0047432D02*
X0014494Y0047432D01*
X0014410Y0046100D02*
X0014506Y0045493D01*
X0014715Y0044849D01*
X0015022Y0044246D01*
X0015420Y0043699D01*
X0015899Y0043220D01*
X0016446Y0042822D01*
X0017049Y0042515D01*
X0017693Y0042306D01*
X0018362Y0042200D01*
X0021100Y0042200D01*
X0021100Y0046100D01*
X0014410Y0046100D01*
X0014525Y0045434D02*
X0004005Y0045434D01*
X0004004Y0044436D02*
X0014926Y0044436D01*
X0015681Y0043437D02*
X0004004Y0043437D01*
X0004004Y0042439D02*
X0017283Y0042439D01*
X0021100Y0042439D02*
X0021900Y0042439D01*
X0021900Y0043437D02*
X0021100Y0043437D01*
X0021100Y0044436D02*
X0021900Y0044436D01*
X0021900Y0045434D02*
X0021100Y0045434D01*
X0021100Y0046433D02*
X0004005Y0046433D01*
X0017306Y0087372D02*
X0106941Y0087372D01*
X0116059Y0087372D02*
X0126634Y0087372D01*
X0126790Y0087485D02*
X0126271Y0087108D01*
X0125817Y0086655D01*
X0125440Y0086136D01*
X0125149Y0085564D01*
X0124951Y0084954D01*
X0124850Y0084321D01*
X0124850Y0084287D01*
X0131213Y0084287D01*
X0131213Y0088075D01*
X0128604Y0088075D01*
X0127971Y0087974D01*
X0127361Y0087776D01*
X0126790Y0087485D01*
X0125613Y0086373D02*
X0117181Y0086373D01*
X0117699Y0085375D02*
X0125087Y0085375D01*
X0124859Y0084376D02*
X0117950Y0084376D01*
X0117950Y0083378D02*
X0124898Y0083378D01*
X0124850Y0083679D02*
X0124951Y0083046D01*
X0125149Y0082436D01*
X0125440Y0081864D01*
X0125817Y0081345D01*
X0126271Y0080892D01*
X0126790Y0080515D01*
X0127361Y0080224D01*
X0127971Y0080026D01*
X0128604Y0079925D01*
X0131213Y0079925D01*
X0131213Y0083713D01*
X0124850Y0083713D01*
X0124850Y0083679D01*
X0125178Y0082379D02*
X0124202Y0082379D01*
X0125168Y0081381D02*
X0125791Y0081381D01*
X0125582Y0080382D02*
X0127050Y0080382D01*
X0131213Y0080382D02*
X0131787Y0080382D01*
X0131787Y0081381D02*
X0131213Y0081381D01*
X0131213Y0082379D02*
X0131787Y0082379D01*
X0131787Y0083378D02*
X0131213Y0083378D01*
X0131213Y0084376D02*
X0131787Y0084376D01*
X0131787Y0085375D02*
X0131213Y0085375D01*
X0131213Y0086373D02*
X0131787Y0086373D01*
X0131787Y0087372D02*
X0131213Y0087372D01*
X0118798Y0082379D02*
X0117598Y0082379D01*
X0117832Y0081381D02*
X0116935Y0081381D01*
X0118031Y0076388D02*
X0098934Y0076388D01*
X0097935Y0075390D02*
X0119029Y0075390D01*
X0107625Y0066403D02*
X0098949Y0066403D01*
X0156100Y0050427D02*
X0156900Y0050427D01*
X0156900Y0050800D02*
X0156900Y0046900D01*
X0163590Y0046900D01*
X0163494Y0047507D01*
X0163285Y0048151D01*
X0162978Y0048754D01*
X0162580Y0049301D01*
X0162101Y0049780D01*
X0161554Y0050178D01*
X0160951Y0050485D01*
X0160307Y0050694D01*
X0159638Y0050800D01*
X0156900Y0050800D01*
X0156900Y0049429D02*
X0156100Y0049429D01*
X0156100Y0048430D02*
X0156900Y0048430D01*
X0156900Y0047432D02*
X0156100Y0047432D01*
X0156900Y0046433D02*
X0168350Y0046433D01*
X0168350Y0045434D02*
X0163475Y0045434D01*
X0163074Y0044436D02*
X0168350Y0044436D01*
X0168350Y0043437D02*
X0162319Y0043437D01*
X0160716Y0042439D02*
X0168350Y0042439D01*
X0168350Y0047432D02*
X0163506Y0047432D01*
X0163143Y0048430D02*
X0168350Y0048430D01*
X0168350Y0049429D02*
X0162453Y0049429D01*
X0161064Y0050427D02*
X0168350Y0050427D01*
D22*
X0081500Y0051500D02*
X0076500Y0051500D01*
X0071500Y0046500D01*
X0071500Y0009000D01*
M02*
