G75*
%MOIN*%
%OFA0B0*%
%FSLAX25Y25*%
%IPPOS*%
%LPD*%
%AMOC8*
5,1,8,0,0,1.08239X$1,22.5*
%
%ADD10C,0.00000*%
%ADD11C,0.13800*%
%ADD12C,0.06000*%
%ADD13C,0.06400*%
%ADD14R,0.05950X0.05950*%
%ADD15C,0.05950*%
%ADD16C,0.06800*%
%ADD17OC8,0.07000*%
%ADD18C,0.07000*%
%ADD19R,0.07800X0.07800*%
%ADD20C,0.07800*%
%ADD21OC8,0.06800*%
D10*
X0001494Y0001520D02*
X0001516Y0091480D01*
X0170850Y0091480D01*
X0170850Y0001520D01*
X0001494Y0001520D01*
X0007500Y0014000D02*
X0007502Y0014161D01*
X0007508Y0014321D01*
X0007518Y0014482D01*
X0007532Y0014642D01*
X0007550Y0014802D01*
X0007571Y0014961D01*
X0007597Y0015120D01*
X0007627Y0015278D01*
X0007660Y0015435D01*
X0007698Y0015592D01*
X0007739Y0015747D01*
X0007784Y0015901D01*
X0007833Y0016054D01*
X0007886Y0016206D01*
X0007942Y0016357D01*
X0008003Y0016506D01*
X0008066Y0016654D01*
X0008134Y0016800D01*
X0008205Y0016944D01*
X0008279Y0017086D01*
X0008357Y0017227D01*
X0008439Y0017365D01*
X0008524Y0017502D01*
X0008612Y0017636D01*
X0008704Y0017768D01*
X0008799Y0017898D01*
X0008897Y0018026D01*
X0008998Y0018151D01*
X0009102Y0018273D01*
X0009209Y0018393D01*
X0009319Y0018510D01*
X0009432Y0018625D01*
X0009548Y0018736D01*
X0009667Y0018845D01*
X0009788Y0018950D01*
X0009912Y0019053D01*
X0010038Y0019153D01*
X0010166Y0019249D01*
X0010297Y0019342D01*
X0010431Y0019432D01*
X0010566Y0019519D01*
X0010704Y0019602D01*
X0010843Y0019682D01*
X0010985Y0019758D01*
X0011128Y0019831D01*
X0011273Y0019900D01*
X0011420Y0019966D01*
X0011568Y0020028D01*
X0011718Y0020086D01*
X0011869Y0020141D01*
X0012022Y0020192D01*
X0012176Y0020239D01*
X0012331Y0020282D01*
X0012487Y0020321D01*
X0012643Y0020357D01*
X0012801Y0020388D01*
X0012959Y0020416D01*
X0013118Y0020440D01*
X0013278Y0020460D01*
X0013438Y0020476D01*
X0013598Y0020488D01*
X0013759Y0020496D01*
X0013920Y0020500D01*
X0014080Y0020500D01*
X0014241Y0020496D01*
X0014402Y0020488D01*
X0014562Y0020476D01*
X0014722Y0020460D01*
X0014882Y0020440D01*
X0015041Y0020416D01*
X0015199Y0020388D01*
X0015357Y0020357D01*
X0015513Y0020321D01*
X0015669Y0020282D01*
X0015824Y0020239D01*
X0015978Y0020192D01*
X0016131Y0020141D01*
X0016282Y0020086D01*
X0016432Y0020028D01*
X0016580Y0019966D01*
X0016727Y0019900D01*
X0016872Y0019831D01*
X0017015Y0019758D01*
X0017157Y0019682D01*
X0017296Y0019602D01*
X0017434Y0019519D01*
X0017569Y0019432D01*
X0017703Y0019342D01*
X0017834Y0019249D01*
X0017962Y0019153D01*
X0018088Y0019053D01*
X0018212Y0018950D01*
X0018333Y0018845D01*
X0018452Y0018736D01*
X0018568Y0018625D01*
X0018681Y0018510D01*
X0018791Y0018393D01*
X0018898Y0018273D01*
X0019002Y0018151D01*
X0019103Y0018026D01*
X0019201Y0017898D01*
X0019296Y0017768D01*
X0019388Y0017636D01*
X0019476Y0017502D01*
X0019561Y0017365D01*
X0019643Y0017227D01*
X0019721Y0017086D01*
X0019795Y0016944D01*
X0019866Y0016800D01*
X0019934Y0016654D01*
X0019997Y0016506D01*
X0020058Y0016357D01*
X0020114Y0016206D01*
X0020167Y0016054D01*
X0020216Y0015901D01*
X0020261Y0015747D01*
X0020302Y0015592D01*
X0020340Y0015435D01*
X0020373Y0015278D01*
X0020403Y0015120D01*
X0020429Y0014961D01*
X0020450Y0014802D01*
X0020468Y0014642D01*
X0020482Y0014482D01*
X0020492Y0014321D01*
X0020498Y0014161D01*
X0020500Y0014000D01*
X0020498Y0013839D01*
X0020492Y0013679D01*
X0020482Y0013518D01*
X0020468Y0013358D01*
X0020450Y0013198D01*
X0020429Y0013039D01*
X0020403Y0012880D01*
X0020373Y0012722D01*
X0020340Y0012565D01*
X0020302Y0012408D01*
X0020261Y0012253D01*
X0020216Y0012099D01*
X0020167Y0011946D01*
X0020114Y0011794D01*
X0020058Y0011643D01*
X0019997Y0011494D01*
X0019934Y0011346D01*
X0019866Y0011200D01*
X0019795Y0011056D01*
X0019721Y0010914D01*
X0019643Y0010773D01*
X0019561Y0010635D01*
X0019476Y0010498D01*
X0019388Y0010364D01*
X0019296Y0010232D01*
X0019201Y0010102D01*
X0019103Y0009974D01*
X0019002Y0009849D01*
X0018898Y0009727D01*
X0018791Y0009607D01*
X0018681Y0009490D01*
X0018568Y0009375D01*
X0018452Y0009264D01*
X0018333Y0009155D01*
X0018212Y0009050D01*
X0018088Y0008947D01*
X0017962Y0008847D01*
X0017834Y0008751D01*
X0017703Y0008658D01*
X0017569Y0008568D01*
X0017434Y0008481D01*
X0017296Y0008398D01*
X0017157Y0008318D01*
X0017015Y0008242D01*
X0016872Y0008169D01*
X0016727Y0008100D01*
X0016580Y0008034D01*
X0016432Y0007972D01*
X0016282Y0007914D01*
X0016131Y0007859D01*
X0015978Y0007808D01*
X0015824Y0007761D01*
X0015669Y0007718D01*
X0015513Y0007679D01*
X0015357Y0007643D01*
X0015199Y0007612D01*
X0015041Y0007584D01*
X0014882Y0007560D01*
X0014722Y0007540D01*
X0014562Y0007524D01*
X0014402Y0007512D01*
X0014241Y0007504D01*
X0014080Y0007500D01*
X0013920Y0007500D01*
X0013759Y0007504D01*
X0013598Y0007512D01*
X0013438Y0007524D01*
X0013278Y0007540D01*
X0013118Y0007560D01*
X0012959Y0007584D01*
X0012801Y0007612D01*
X0012643Y0007643D01*
X0012487Y0007679D01*
X0012331Y0007718D01*
X0012176Y0007761D01*
X0012022Y0007808D01*
X0011869Y0007859D01*
X0011718Y0007914D01*
X0011568Y0007972D01*
X0011420Y0008034D01*
X0011273Y0008100D01*
X0011128Y0008169D01*
X0010985Y0008242D01*
X0010843Y0008318D01*
X0010704Y0008398D01*
X0010566Y0008481D01*
X0010431Y0008568D01*
X0010297Y0008658D01*
X0010166Y0008751D01*
X0010038Y0008847D01*
X0009912Y0008947D01*
X0009788Y0009050D01*
X0009667Y0009155D01*
X0009548Y0009264D01*
X0009432Y0009375D01*
X0009319Y0009490D01*
X0009209Y0009607D01*
X0009102Y0009727D01*
X0008998Y0009849D01*
X0008897Y0009974D01*
X0008799Y0010102D01*
X0008704Y0010232D01*
X0008612Y0010364D01*
X0008524Y0010498D01*
X0008439Y0010635D01*
X0008357Y0010773D01*
X0008279Y0010914D01*
X0008205Y0011056D01*
X0008134Y0011200D01*
X0008066Y0011346D01*
X0008003Y0011494D01*
X0007942Y0011643D01*
X0007886Y0011794D01*
X0007833Y0011946D01*
X0007784Y0012099D01*
X0007739Y0012253D01*
X0007698Y0012408D01*
X0007660Y0012565D01*
X0007627Y0012722D01*
X0007597Y0012880D01*
X0007571Y0013039D01*
X0007550Y0013198D01*
X0007532Y0013358D01*
X0007518Y0013518D01*
X0007508Y0013679D01*
X0007502Y0013839D01*
X0007500Y0014000D01*
X0007500Y0079000D02*
X0007502Y0079161D01*
X0007508Y0079321D01*
X0007518Y0079482D01*
X0007532Y0079642D01*
X0007550Y0079802D01*
X0007571Y0079961D01*
X0007597Y0080120D01*
X0007627Y0080278D01*
X0007660Y0080435D01*
X0007698Y0080592D01*
X0007739Y0080747D01*
X0007784Y0080901D01*
X0007833Y0081054D01*
X0007886Y0081206D01*
X0007942Y0081357D01*
X0008003Y0081506D01*
X0008066Y0081654D01*
X0008134Y0081800D01*
X0008205Y0081944D01*
X0008279Y0082086D01*
X0008357Y0082227D01*
X0008439Y0082365D01*
X0008524Y0082502D01*
X0008612Y0082636D01*
X0008704Y0082768D01*
X0008799Y0082898D01*
X0008897Y0083026D01*
X0008998Y0083151D01*
X0009102Y0083273D01*
X0009209Y0083393D01*
X0009319Y0083510D01*
X0009432Y0083625D01*
X0009548Y0083736D01*
X0009667Y0083845D01*
X0009788Y0083950D01*
X0009912Y0084053D01*
X0010038Y0084153D01*
X0010166Y0084249D01*
X0010297Y0084342D01*
X0010431Y0084432D01*
X0010566Y0084519D01*
X0010704Y0084602D01*
X0010843Y0084682D01*
X0010985Y0084758D01*
X0011128Y0084831D01*
X0011273Y0084900D01*
X0011420Y0084966D01*
X0011568Y0085028D01*
X0011718Y0085086D01*
X0011869Y0085141D01*
X0012022Y0085192D01*
X0012176Y0085239D01*
X0012331Y0085282D01*
X0012487Y0085321D01*
X0012643Y0085357D01*
X0012801Y0085388D01*
X0012959Y0085416D01*
X0013118Y0085440D01*
X0013278Y0085460D01*
X0013438Y0085476D01*
X0013598Y0085488D01*
X0013759Y0085496D01*
X0013920Y0085500D01*
X0014080Y0085500D01*
X0014241Y0085496D01*
X0014402Y0085488D01*
X0014562Y0085476D01*
X0014722Y0085460D01*
X0014882Y0085440D01*
X0015041Y0085416D01*
X0015199Y0085388D01*
X0015357Y0085357D01*
X0015513Y0085321D01*
X0015669Y0085282D01*
X0015824Y0085239D01*
X0015978Y0085192D01*
X0016131Y0085141D01*
X0016282Y0085086D01*
X0016432Y0085028D01*
X0016580Y0084966D01*
X0016727Y0084900D01*
X0016872Y0084831D01*
X0017015Y0084758D01*
X0017157Y0084682D01*
X0017296Y0084602D01*
X0017434Y0084519D01*
X0017569Y0084432D01*
X0017703Y0084342D01*
X0017834Y0084249D01*
X0017962Y0084153D01*
X0018088Y0084053D01*
X0018212Y0083950D01*
X0018333Y0083845D01*
X0018452Y0083736D01*
X0018568Y0083625D01*
X0018681Y0083510D01*
X0018791Y0083393D01*
X0018898Y0083273D01*
X0019002Y0083151D01*
X0019103Y0083026D01*
X0019201Y0082898D01*
X0019296Y0082768D01*
X0019388Y0082636D01*
X0019476Y0082502D01*
X0019561Y0082365D01*
X0019643Y0082227D01*
X0019721Y0082086D01*
X0019795Y0081944D01*
X0019866Y0081800D01*
X0019934Y0081654D01*
X0019997Y0081506D01*
X0020058Y0081357D01*
X0020114Y0081206D01*
X0020167Y0081054D01*
X0020216Y0080901D01*
X0020261Y0080747D01*
X0020302Y0080592D01*
X0020340Y0080435D01*
X0020373Y0080278D01*
X0020403Y0080120D01*
X0020429Y0079961D01*
X0020450Y0079802D01*
X0020468Y0079642D01*
X0020482Y0079482D01*
X0020492Y0079321D01*
X0020498Y0079161D01*
X0020500Y0079000D01*
X0020498Y0078839D01*
X0020492Y0078679D01*
X0020482Y0078518D01*
X0020468Y0078358D01*
X0020450Y0078198D01*
X0020429Y0078039D01*
X0020403Y0077880D01*
X0020373Y0077722D01*
X0020340Y0077565D01*
X0020302Y0077408D01*
X0020261Y0077253D01*
X0020216Y0077099D01*
X0020167Y0076946D01*
X0020114Y0076794D01*
X0020058Y0076643D01*
X0019997Y0076494D01*
X0019934Y0076346D01*
X0019866Y0076200D01*
X0019795Y0076056D01*
X0019721Y0075914D01*
X0019643Y0075773D01*
X0019561Y0075635D01*
X0019476Y0075498D01*
X0019388Y0075364D01*
X0019296Y0075232D01*
X0019201Y0075102D01*
X0019103Y0074974D01*
X0019002Y0074849D01*
X0018898Y0074727D01*
X0018791Y0074607D01*
X0018681Y0074490D01*
X0018568Y0074375D01*
X0018452Y0074264D01*
X0018333Y0074155D01*
X0018212Y0074050D01*
X0018088Y0073947D01*
X0017962Y0073847D01*
X0017834Y0073751D01*
X0017703Y0073658D01*
X0017569Y0073568D01*
X0017434Y0073481D01*
X0017296Y0073398D01*
X0017157Y0073318D01*
X0017015Y0073242D01*
X0016872Y0073169D01*
X0016727Y0073100D01*
X0016580Y0073034D01*
X0016432Y0072972D01*
X0016282Y0072914D01*
X0016131Y0072859D01*
X0015978Y0072808D01*
X0015824Y0072761D01*
X0015669Y0072718D01*
X0015513Y0072679D01*
X0015357Y0072643D01*
X0015199Y0072612D01*
X0015041Y0072584D01*
X0014882Y0072560D01*
X0014722Y0072540D01*
X0014562Y0072524D01*
X0014402Y0072512D01*
X0014241Y0072504D01*
X0014080Y0072500D01*
X0013920Y0072500D01*
X0013759Y0072504D01*
X0013598Y0072512D01*
X0013438Y0072524D01*
X0013278Y0072540D01*
X0013118Y0072560D01*
X0012959Y0072584D01*
X0012801Y0072612D01*
X0012643Y0072643D01*
X0012487Y0072679D01*
X0012331Y0072718D01*
X0012176Y0072761D01*
X0012022Y0072808D01*
X0011869Y0072859D01*
X0011718Y0072914D01*
X0011568Y0072972D01*
X0011420Y0073034D01*
X0011273Y0073100D01*
X0011128Y0073169D01*
X0010985Y0073242D01*
X0010843Y0073318D01*
X0010704Y0073398D01*
X0010566Y0073481D01*
X0010431Y0073568D01*
X0010297Y0073658D01*
X0010166Y0073751D01*
X0010038Y0073847D01*
X0009912Y0073947D01*
X0009788Y0074050D01*
X0009667Y0074155D01*
X0009548Y0074264D01*
X0009432Y0074375D01*
X0009319Y0074490D01*
X0009209Y0074607D01*
X0009102Y0074727D01*
X0008998Y0074849D01*
X0008897Y0074974D01*
X0008799Y0075102D01*
X0008704Y0075232D01*
X0008612Y0075364D01*
X0008524Y0075498D01*
X0008439Y0075635D01*
X0008357Y0075773D01*
X0008279Y0075914D01*
X0008205Y0076056D01*
X0008134Y0076200D01*
X0008066Y0076346D01*
X0008003Y0076494D01*
X0007942Y0076643D01*
X0007886Y0076794D01*
X0007833Y0076946D01*
X0007784Y0077099D01*
X0007739Y0077253D01*
X0007698Y0077408D01*
X0007660Y0077565D01*
X0007627Y0077722D01*
X0007597Y0077880D01*
X0007571Y0078039D01*
X0007550Y0078198D01*
X0007532Y0078358D01*
X0007518Y0078518D01*
X0007508Y0078679D01*
X0007502Y0078839D01*
X0007500Y0079000D01*
X0152500Y0079000D02*
X0152502Y0079161D01*
X0152508Y0079321D01*
X0152518Y0079482D01*
X0152532Y0079642D01*
X0152550Y0079802D01*
X0152571Y0079961D01*
X0152597Y0080120D01*
X0152627Y0080278D01*
X0152660Y0080435D01*
X0152698Y0080592D01*
X0152739Y0080747D01*
X0152784Y0080901D01*
X0152833Y0081054D01*
X0152886Y0081206D01*
X0152942Y0081357D01*
X0153003Y0081506D01*
X0153066Y0081654D01*
X0153134Y0081800D01*
X0153205Y0081944D01*
X0153279Y0082086D01*
X0153357Y0082227D01*
X0153439Y0082365D01*
X0153524Y0082502D01*
X0153612Y0082636D01*
X0153704Y0082768D01*
X0153799Y0082898D01*
X0153897Y0083026D01*
X0153998Y0083151D01*
X0154102Y0083273D01*
X0154209Y0083393D01*
X0154319Y0083510D01*
X0154432Y0083625D01*
X0154548Y0083736D01*
X0154667Y0083845D01*
X0154788Y0083950D01*
X0154912Y0084053D01*
X0155038Y0084153D01*
X0155166Y0084249D01*
X0155297Y0084342D01*
X0155431Y0084432D01*
X0155566Y0084519D01*
X0155704Y0084602D01*
X0155843Y0084682D01*
X0155985Y0084758D01*
X0156128Y0084831D01*
X0156273Y0084900D01*
X0156420Y0084966D01*
X0156568Y0085028D01*
X0156718Y0085086D01*
X0156869Y0085141D01*
X0157022Y0085192D01*
X0157176Y0085239D01*
X0157331Y0085282D01*
X0157487Y0085321D01*
X0157643Y0085357D01*
X0157801Y0085388D01*
X0157959Y0085416D01*
X0158118Y0085440D01*
X0158278Y0085460D01*
X0158438Y0085476D01*
X0158598Y0085488D01*
X0158759Y0085496D01*
X0158920Y0085500D01*
X0159080Y0085500D01*
X0159241Y0085496D01*
X0159402Y0085488D01*
X0159562Y0085476D01*
X0159722Y0085460D01*
X0159882Y0085440D01*
X0160041Y0085416D01*
X0160199Y0085388D01*
X0160357Y0085357D01*
X0160513Y0085321D01*
X0160669Y0085282D01*
X0160824Y0085239D01*
X0160978Y0085192D01*
X0161131Y0085141D01*
X0161282Y0085086D01*
X0161432Y0085028D01*
X0161580Y0084966D01*
X0161727Y0084900D01*
X0161872Y0084831D01*
X0162015Y0084758D01*
X0162157Y0084682D01*
X0162296Y0084602D01*
X0162434Y0084519D01*
X0162569Y0084432D01*
X0162703Y0084342D01*
X0162834Y0084249D01*
X0162962Y0084153D01*
X0163088Y0084053D01*
X0163212Y0083950D01*
X0163333Y0083845D01*
X0163452Y0083736D01*
X0163568Y0083625D01*
X0163681Y0083510D01*
X0163791Y0083393D01*
X0163898Y0083273D01*
X0164002Y0083151D01*
X0164103Y0083026D01*
X0164201Y0082898D01*
X0164296Y0082768D01*
X0164388Y0082636D01*
X0164476Y0082502D01*
X0164561Y0082365D01*
X0164643Y0082227D01*
X0164721Y0082086D01*
X0164795Y0081944D01*
X0164866Y0081800D01*
X0164934Y0081654D01*
X0164997Y0081506D01*
X0165058Y0081357D01*
X0165114Y0081206D01*
X0165167Y0081054D01*
X0165216Y0080901D01*
X0165261Y0080747D01*
X0165302Y0080592D01*
X0165340Y0080435D01*
X0165373Y0080278D01*
X0165403Y0080120D01*
X0165429Y0079961D01*
X0165450Y0079802D01*
X0165468Y0079642D01*
X0165482Y0079482D01*
X0165492Y0079321D01*
X0165498Y0079161D01*
X0165500Y0079000D01*
X0165498Y0078839D01*
X0165492Y0078679D01*
X0165482Y0078518D01*
X0165468Y0078358D01*
X0165450Y0078198D01*
X0165429Y0078039D01*
X0165403Y0077880D01*
X0165373Y0077722D01*
X0165340Y0077565D01*
X0165302Y0077408D01*
X0165261Y0077253D01*
X0165216Y0077099D01*
X0165167Y0076946D01*
X0165114Y0076794D01*
X0165058Y0076643D01*
X0164997Y0076494D01*
X0164934Y0076346D01*
X0164866Y0076200D01*
X0164795Y0076056D01*
X0164721Y0075914D01*
X0164643Y0075773D01*
X0164561Y0075635D01*
X0164476Y0075498D01*
X0164388Y0075364D01*
X0164296Y0075232D01*
X0164201Y0075102D01*
X0164103Y0074974D01*
X0164002Y0074849D01*
X0163898Y0074727D01*
X0163791Y0074607D01*
X0163681Y0074490D01*
X0163568Y0074375D01*
X0163452Y0074264D01*
X0163333Y0074155D01*
X0163212Y0074050D01*
X0163088Y0073947D01*
X0162962Y0073847D01*
X0162834Y0073751D01*
X0162703Y0073658D01*
X0162569Y0073568D01*
X0162434Y0073481D01*
X0162296Y0073398D01*
X0162157Y0073318D01*
X0162015Y0073242D01*
X0161872Y0073169D01*
X0161727Y0073100D01*
X0161580Y0073034D01*
X0161432Y0072972D01*
X0161282Y0072914D01*
X0161131Y0072859D01*
X0160978Y0072808D01*
X0160824Y0072761D01*
X0160669Y0072718D01*
X0160513Y0072679D01*
X0160357Y0072643D01*
X0160199Y0072612D01*
X0160041Y0072584D01*
X0159882Y0072560D01*
X0159722Y0072540D01*
X0159562Y0072524D01*
X0159402Y0072512D01*
X0159241Y0072504D01*
X0159080Y0072500D01*
X0158920Y0072500D01*
X0158759Y0072504D01*
X0158598Y0072512D01*
X0158438Y0072524D01*
X0158278Y0072540D01*
X0158118Y0072560D01*
X0157959Y0072584D01*
X0157801Y0072612D01*
X0157643Y0072643D01*
X0157487Y0072679D01*
X0157331Y0072718D01*
X0157176Y0072761D01*
X0157022Y0072808D01*
X0156869Y0072859D01*
X0156718Y0072914D01*
X0156568Y0072972D01*
X0156420Y0073034D01*
X0156273Y0073100D01*
X0156128Y0073169D01*
X0155985Y0073242D01*
X0155843Y0073318D01*
X0155704Y0073398D01*
X0155566Y0073481D01*
X0155431Y0073568D01*
X0155297Y0073658D01*
X0155166Y0073751D01*
X0155038Y0073847D01*
X0154912Y0073947D01*
X0154788Y0074050D01*
X0154667Y0074155D01*
X0154548Y0074264D01*
X0154432Y0074375D01*
X0154319Y0074490D01*
X0154209Y0074607D01*
X0154102Y0074727D01*
X0153998Y0074849D01*
X0153897Y0074974D01*
X0153799Y0075102D01*
X0153704Y0075232D01*
X0153612Y0075364D01*
X0153524Y0075498D01*
X0153439Y0075635D01*
X0153357Y0075773D01*
X0153279Y0075914D01*
X0153205Y0076056D01*
X0153134Y0076200D01*
X0153066Y0076346D01*
X0153003Y0076494D01*
X0152942Y0076643D01*
X0152886Y0076794D01*
X0152833Y0076946D01*
X0152784Y0077099D01*
X0152739Y0077253D01*
X0152698Y0077408D01*
X0152660Y0077565D01*
X0152627Y0077722D01*
X0152597Y0077880D01*
X0152571Y0078039D01*
X0152550Y0078198D01*
X0152532Y0078358D01*
X0152518Y0078518D01*
X0152508Y0078679D01*
X0152502Y0078839D01*
X0152500Y0079000D01*
X0152500Y0014000D02*
X0152502Y0014161D01*
X0152508Y0014321D01*
X0152518Y0014482D01*
X0152532Y0014642D01*
X0152550Y0014802D01*
X0152571Y0014961D01*
X0152597Y0015120D01*
X0152627Y0015278D01*
X0152660Y0015435D01*
X0152698Y0015592D01*
X0152739Y0015747D01*
X0152784Y0015901D01*
X0152833Y0016054D01*
X0152886Y0016206D01*
X0152942Y0016357D01*
X0153003Y0016506D01*
X0153066Y0016654D01*
X0153134Y0016800D01*
X0153205Y0016944D01*
X0153279Y0017086D01*
X0153357Y0017227D01*
X0153439Y0017365D01*
X0153524Y0017502D01*
X0153612Y0017636D01*
X0153704Y0017768D01*
X0153799Y0017898D01*
X0153897Y0018026D01*
X0153998Y0018151D01*
X0154102Y0018273D01*
X0154209Y0018393D01*
X0154319Y0018510D01*
X0154432Y0018625D01*
X0154548Y0018736D01*
X0154667Y0018845D01*
X0154788Y0018950D01*
X0154912Y0019053D01*
X0155038Y0019153D01*
X0155166Y0019249D01*
X0155297Y0019342D01*
X0155431Y0019432D01*
X0155566Y0019519D01*
X0155704Y0019602D01*
X0155843Y0019682D01*
X0155985Y0019758D01*
X0156128Y0019831D01*
X0156273Y0019900D01*
X0156420Y0019966D01*
X0156568Y0020028D01*
X0156718Y0020086D01*
X0156869Y0020141D01*
X0157022Y0020192D01*
X0157176Y0020239D01*
X0157331Y0020282D01*
X0157487Y0020321D01*
X0157643Y0020357D01*
X0157801Y0020388D01*
X0157959Y0020416D01*
X0158118Y0020440D01*
X0158278Y0020460D01*
X0158438Y0020476D01*
X0158598Y0020488D01*
X0158759Y0020496D01*
X0158920Y0020500D01*
X0159080Y0020500D01*
X0159241Y0020496D01*
X0159402Y0020488D01*
X0159562Y0020476D01*
X0159722Y0020460D01*
X0159882Y0020440D01*
X0160041Y0020416D01*
X0160199Y0020388D01*
X0160357Y0020357D01*
X0160513Y0020321D01*
X0160669Y0020282D01*
X0160824Y0020239D01*
X0160978Y0020192D01*
X0161131Y0020141D01*
X0161282Y0020086D01*
X0161432Y0020028D01*
X0161580Y0019966D01*
X0161727Y0019900D01*
X0161872Y0019831D01*
X0162015Y0019758D01*
X0162157Y0019682D01*
X0162296Y0019602D01*
X0162434Y0019519D01*
X0162569Y0019432D01*
X0162703Y0019342D01*
X0162834Y0019249D01*
X0162962Y0019153D01*
X0163088Y0019053D01*
X0163212Y0018950D01*
X0163333Y0018845D01*
X0163452Y0018736D01*
X0163568Y0018625D01*
X0163681Y0018510D01*
X0163791Y0018393D01*
X0163898Y0018273D01*
X0164002Y0018151D01*
X0164103Y0018026D01*
X0164201Y0017898D01*
X0164296Y0017768D01*
X0164388Y0017636D01*
X0164476Y0017502D01*
X0164561Y0017365D01*
X0164643Y0017227D01*
X0164721Y0017086D01*
X0164795Y0016944D01*
X0164866Y0016800D01*
X0164934Y0016654D01*
X0164997Y0016506D01*
X0165058Y0016357D01*
X0165114Y0016206D01*
X0165167Y0016054D01*
X0165216Y0015901D01*
X0165261Y0015747D01*
X0165302Y0015592D01*
X0165340Y0015435D01*
X0165373Y0015278D01*
X0165403Y0015120D01*
X0165429Y0014961D01*
X0165450Y0014802D01*
X0165468Y0014642D01*
X0165482Y0014482D01*
X0165492Y0014321D01*
X0165498Y0014161D01*
X0165500Y0014000D01*
X0165498Y0013839D01*
X0165492Y0013679D01*
X0165482Y0013518D01*
X0165468Y0013358D01*
X0165450Y0013198D01*
X0165429Y0013039D01*
X0165403Y0012880D01*
X0165373Y0012722D01*
X0165340Y0012565D01*
X0165302Y0012408D01*
X0165261Y0012253D01*
X0165216Y0012099D01*
X0165167Y0011946D01*
X0165114Y0011794D01*
X0165058Y0011643D01*
X0164997Y0011494D01*
X0164934Y0011346D01*
X0164866Y0011200D01*
X0164795Y0011056D01*
X0164721Y0010914D01*
X0164643Y0010773D01*
X0164561Y0010635D01*
X0164476Y0010498D01*
X0164388Y0010364D01*
X0164296Y0010232D01*
X0164201Y0010102D01*
X0164103Y0009974D01*
X0164002Y0009849D01*
X0163898Y0009727D01*
X0163791Y0009607D01*
X0163681Y0009490D01*
X0163568Y0009375D01*
X0163452Y0009264D01*
X0163333Y0009155D01*
X0163212Y0009050D01*
X0163088Y0008947D01*
X0162962Y0008847D01*
X0162834Y0008751D01*
X0162703Y0008658D01*
X0162569Y0008568D01*
X0162434Y0008481D01*
X0162296Y0008398D01*
X0162157Y0008318D01*
X0162015Y0008242D01*
X0161872Y0008169D01*
X0161727Y0008100D01*
X0161580Y0008034D01*
X0161432Y0007972D01*
X0161282Y0007914D01*
X0161131Y0007859D01*
X0160978Y0007808D01*
X0160824Y0007761D01*
X0160669Y0007718D01*
X0160513Y0007679D01*
X0160357Y0007643D01*
X0160199Y0007612D01*
X0160041Y0007584D01*
X0159882Y0007560D01*
X0159722Y0007540D01*
X0159562Y0007524D01*
X0159402Y0007512D01*
X0159241Y0007504D01*
X0159080Y0007500D01*
X0158920Y0007500D01*
X0158759Y0007504D01*
X0158598Y0007512D01*
X0158438Y0007524D01*
X0158278Y0007540D01*
X0158118Y0007560D01*
X0157959Y0007584D01*
X0157801Y0007612D01*
X0157643Y0007643D01*
X0157487Y0007679D01*
X0157331Y0007718D01*
X0157176Y0007761D01*
X0157022Y0007808D01*
X0156869Y0007859D01*
X0156718Y0007914D01*
X0156568Y0007972D01*
X0156420Y0008034D01*
X0156273Y0008100D01*
X0156128Y0008169D01*
X0155985Y0008242D01*
X0155843Y0008318D01*
X0155704Y0008398D01*
X0155566Y0008481D01*
X0155431Y0008568D01*
X0155297Y0008658D01*
X0155166Y0008751D01*
X0155038Y0008847D01*
X0154912Y0008947D01*
X0154788Y0009050D01*
X0154667Y0009155D01*
X0154548Y0009264D01*
X0154432Y0009375D01*
X0154319Y0009490D01*
X0154209Y0009607D01*
X0154102Y0009727D01*
X0153998Y0009849D01*
X0153897Y0009974D01*
X0153799Y0010102D01*
X0153704Y0010232D01*
X0153612Y0010364D01*
X0153524Y0010498D01*
X0153439Y0010635D01*
X0153357Y0010773D01*
X0153279Y0010914D01*
X0153205Y0011056D01*
X0153134Y0011200D01*
X0153066Y0011346D01*
X0153003Y0011494D01*
X0152942Y0011643D01*
X0152886Y0011794D01*
X0152833Y0011946D01*
X0152784Y0012099D01*
X0152739Y0012253D01*
X0152698Y0012408D01*
X0152660Y0012565D01*
X0152627Y0012722D01*
X0152597Y0012880D01*
X0152571Y0013039D01*
X0152550Y0013198D01*
X0152532Y0013358D01*
X0152518Y0013518D01*
X0152508Y0013679D01*
X0152502Y0013839D01*
X0152500Y0014000D01*
D11*
X0159000Y0014000D03*
X0159000Y0079000D03*
X0014000Y0079000D03*
X0014000Y0014000D03*
D12*
X0048900Y0021500D02*
X0054100Y0021500D01*
X0054100Y0031500D02*
X0048900Y0031500D01*
X0048900Y0041500D02*
X0054100Y0041500D01*
X0054100Y0051500D02*
X0048900Y0051500D01*
X0078900Y0051500D02*
X0084100Y0051500D01*
X0084100Y0041500D02*
X0078900Y0041500D01*
X0078900Y0031500D02*
X0084100Y0031500D01*
X0084100Y0021500D02*
X0078900Y0021500D01*
D13*
X0024300Y0046500D02*
X0018700Y0046500D01*
X0018700Y0056500D02*
X0024300Y0056500D01*
X0153700Y0056500D02*
X0159300Y0056500D01*
X0159300Y0046500D02*
X0153700Y0046500D01*
D14*
X0111500Y0064000D03*
D15*
X0128925Y0064000D02*
X0134075Y0064000D01*
X0134075Y0084000D02*
X0128925Y0084000D01*
X0114075Y0084000D02*
X0108925Y0084000D01*
D16*
X0121500Y0079000D03*
X0121500Y0069000D03*
D17*
X0036500Y0074000D03*
D18*
X0026500Y0074000D03*
D19*
X0081500Y0081500D03*
D20*
X0071500Y0081500D03*
X0061500Y0081500D03*
X0061500Y0071500D03*
X0071500Y0071500D03*
X0081500Y0071500D03*
D21*
X0091500Y0051500D03*
X0091500Y0041500D03*
X0091500Y0031500D03*
X0091500Y0021500D03*
X0071500Y0009000D03*
X0061500Y0009000D03*
X0036500Y0011500D03*
X0036500Y0051500D03*
X0131500Y0051500D03*
X0131500Y0041500D03*
X0131500Y0031500D03*
X0131500Y0021500D03*
M02*
