%
M48
M72
T01C0.0315
T02C0.0320
T03C0.0360
T04C0.0394
T05C0.1300
%
T01
X11150Y8400
X12150Y7900
X13150Y8400
X13150Y6400
X12150Y6900
X11150Y6400
T02
X3650Y1150
X5150Y2150
X5150Y3150
X5150Y4150
X5150Y5150
X3650Y5150
X3650Y7400
X2650Y7400
X8150Y5150
X9150Y5150
X9150Y4150
X8150Y4150
X8150Y3150
X9150Y3150
X9150Y2150
X8150Y2150
X7150Y900
X6150Y900
X13150Y2150
X13150Y3150
X13150Y4150
X13150Y5150
T03
X2150Y4650
X2150Y5650
X15650Y5650
X15650Y4650
T04
X6150Y7150
X7150Y7150
X8150Y7150
X8150Y8150
X7150Y8150
X6150Y8150
T05
X1400Y1400
X1400Y7900
X15900Y7900
X15900Y1400
M30
